<svg xmlns="http://www.w3.org/2000/svg" viewBox="0 841.556 12800 4715">
	<path d="M 2910 5554 C 2709 5541 2541 5526 2450 5514 C 1552 5391 918 5059 592 4539 C 495 4385 406 4162 351 3935 L 324 3825 L 186 3820 C 50 3815 48 3815 24 3787 C 1 3760 0 3755 0 3580 L 0 3400 L 29 3368 C 58 3336 60 3335 158 3332 L 257 3328 L 264 3157 C 286 2574 461 2082 786 1690 C 878 1579 1092 1374 1200 1293 C 1436 1116 1656 1004 1915 929 C 2938 631 4003 1110 5020 2325 C 5657 3086 5937 3795 5823 4362 C 5818 4388 5821 4392 5871 4414 C 5994 4468 6134 4493 6310 4493 C 6507 4492 6703 4445 6820 4370 C 6893 4323 6891 4327 6879 4205 C 6850 3920 6938 3553 7122 3185 C 7435 2562 8105 1796 8720 1360 C 9306 945 9924 775 10520 865 C 10995 936 11411 1152 11775 1515 C 11970 1709 12097 1885 12210 2115 C 12366 2434 12444 2756 12457 3142 L 12463 3329 L 12602 3332 L 12742 3335 L 12771 3368 L 12800 3400 L 12800 3762 L 12742 3820 L 12401 3820 L 12391 3858 C 12386 3878 12374 3924 12366 3960 C 12341 4073 12272 4270 12220 4377 C 12012 4814 11654 5116 11099 5323 C 10814 5430 10485 5497 10025 5541 C 9855 5558 9246 5558 9075 5542 C 8748 5510 8514 5477 8313 5434 L 8200 5410 L 6362 5410 C 4556 5410 4522 5410 4429 5430 C 4220 5475 3938 5515 3660 5540 C 3542 5551 3009 5561 2910 5554 z M 7480 5152 C 7238 4986 7076 4808 6985 4610 C 6969 4574 6955 4543 6953 4541 C 6952 4539 6916 4555 6873 4577 C 6733 4649 6601 4684 6415 4699 C 6199 4716 5957 4680 5788 4606 L 5752 4590 L 5711 4664 C 5620 4830 5469 4995 5311 5101 C 5267 5131 5231 5158 5230 5163 C 5230 5167 5742 5170 6368 5169 C 7441 5169 7504 5168 7480 5152 z M 7822.1248 4885.8954 C 8019.7501 5054.4181 8541.1776 5129.3202 8541.1776 5129.3202 C 8714.6825 5166.4381 8916.6733 5194.924 9198.9425 5222.5467 C 9346.5512 5236.358 9872.2452 5236.358 10018.9907 5221.6835 C 10416.0666 5183.7023 10700.0622 5125.8673 10946.0767 5033.504 C 11425.1574 4854.8198 11734.1861 4594.1309 11913.7335 4216.9087 C 11958.6203 4124.5454 12018.1817 3954.4933 12039.762 3856.9507 C 12046.6676 3825.8752 12057.0261 3786.1676 12061.3422 3768.9034 L 12069.9742 3736.1015 L 12123.4932 3312.2661 L 12118.3139 3150.8461 C 12107.0922 2817.6476 12039.762 2539.6944 11905.1014 2264.3309 C 11807.5588 2065.7929 11697.9313 1913.8682 11529.6057 1746.4057 C 11215.3978 1433.061 10856.303 1246.608 10446.2789 1185.3201 C 9931.8066 1107.6314 9398.3437 1254.3768 8892.5035 1612.6084 C 8361.6302 1988.9673 7783.2804 2650.1851 7513.0961 3187.9641 C 7354.2658 3505.6248 7278.3034 3822.4224 7303.3365 4068.4368 C 7305.802 4093.5028 7315.9132 4249.6517 7367.2139 4358.4749 C 7451.0667 4536.3503 7615.9589 4710.0896 7822.1248 4885.8953 z M 4902.1609 4885.8953 C 5108.3268 4710.0896 5273.219 4536.3503 5357.0718 4358.4749 C 5408.3725 4249.6517 5418.4838 4093.5028 5420.9493 4068.4368 C 5445.9823 3822.4224 5370.02 3505.6248 5211.1896 3187.9641 C 4941.0053 2650.1851 4362.6555 1988.9673 3831.7823 1612.6084 C 3325.942 1254.3768 2792.4791 1107.6314 2278.0068 1185.3202 C 1867.9827 1246.608 1508.888 1433.061 1194.68 1746.4057 C 1026.3544 1913.8682 916.7269 2065.7929 819.1843 2264.3309 C 684.5238 2539.6944 617.1935 2817.6476 605.9718 3150.8461 L 600.7925 3312.2661 L 654.3115 3736.1015 L 662.9436 3768.9034 C 667.2596 3786.1676 677.6181 3825.8752 684.5238 3856.9507 C 706.104 3954.4933 765.6654 4124.5454 810.5522 4216.9087 C 990.0996 4594.1309 1299.1283 4854.8198 1778.209 5033.504 C 2024.2235 5125.8673 2308.2191 5183.7023 2705.2951 5221.6835 C 2852.0405 5236.358 3377.7346 5236.358 3525.3432 5222.5467 C 3807.6124 5194.924 4009.6032 5166.4381 4183.1082 5129.3202 C 4183.1082 5129.3202 4704.5356 5054.4181 4902.1609 4885.8954 z" fill="#000000"/>
</svg>