<svg xmlns="http://www.w3.org/2000/svg" viewBox="11.9319 12.0859 39.98 39.91">
	<path d="M 32 19 C 39.18 19 45 24.82 45 32 C 45 39.18 39.18 45 32 45 C 24.82 45 19 39.18 19 32 C 19 24.82 24.82 19 32 19 z M 32 41 C 36.971 41 41 36.971 41 32 C 41 27.029 36.971 23 32 23 C 27.029 23 23 27.029 23 32 C 23 36.971 27.029 41 32 41 z M 34 14 C 34 14.366 34 13.634 34 14 C 34 15.105 33.105 16 32 16 C 30.895 16 30 15.105 30 14 C 30 13.634 30 14.366 30 14 C 30 12.895 30.895 12.0859 32 12.0859 C 33.105 12.0859 34 12.895 34 14 z M 46.142 20.686 C 45.883 20.945 46.401 20.428 46.142 20.687 C 45.361 21.468 44.095 21.468 43.314 20.687 C 42.533 19.906 42.533 18.64 43.314 17.859 C 43.573 17.6 43.055 18.117 43.314 17.858 C 44.095 17.077 45.361 17.077 46.142 17.858 C 46.923 18.639 46.923 19.905 46.142 20.686 z M 50 34 C 49.634 34 50.366 34 50 34 C 48.895 34 48 33.105 48 32 C 48 30.895 48.895 30 50 30 C 50.366 30 49.634 30 50 30 C 51.105 30 51.9141 30.895 51.9141 32 C 51.9141 33.105 51.105 34 50 34 z M 43.314 46.142 C 43.055 45.883 43.572 46.401 43.313 46.142 C 42.532 45.361 42.532 44.095 43.313 43.314 C 44.094 42.533 45.36 42.533 46.141 43.314 C 46.4 43.573 45.883 43.055 46.142 43.314 C 46.923 44.095 46.923 45.361 46.142 46.142 C 45.361 46.923 44.095 46.923 43.314 46.142 z M 30 50 C 30 49.634 30 50.366 30 50 C 30 48.895 30.895 48 32 48 C 33.105 48 34 48.895 34 50 C 34 50.366 34 49.634 34 50 C 34 51.105 33.105 51.9911 32 51.9911 C 30.895 51.9911 30 51.105 30 50 z M 17.858 43.313 C 18.117 43.054 17.599 43.572 17.858 43.313 C 18.639 42.532 19.905 42.532 20.686 43.313 C 21.467 44.094 21.467 45.36 20.686 46.141 C 20.427 46.4 20.946 45.883 20.687 46.142 C 19.906 46.923 18.639 46.923 17.858 46.142 C 17.077 45.361 17.077 44.094 17.858 43.313 z M 14 30 C 14.366 30 13.634 30 14 30 C 15.105 30 16 30.895 16 32 C 16 33.105 15.105 34 14 34 C 13.634 34 14.366 34 14 34 C 12.895 34 11.9319 33.105 11.9319 32 C 11.9319 30.895 12.895 30 14 30 z M 20.686 17.859 C 20.945 18.118 20.428 17.599 20.687 17.858 C 21.468 18.639 21.468 19.905 20.687 20.686 C 19.906 21.467 18.64 21.467 17.859 20.686 C 17.6 20.427 18.117 20.945 17.858 20.686 C 17.077 19.905 17.078 18.639 17.859 17.858 C 18.64 17.077 19.905 17.078 20.686 17.859 z" fill="#000000"/>
</svg>