<svg version="1.1" id="Layer_1" xmlns="http://www.w3.org/2000/svg" xmlns:xlink="http://www.w3.org/1999/xlink" x="0px" y="0px"
	 width="100%" viewBox="0 0 1250 500" enable-background="new 0 0 1250 500" xml:space="preserve">
<path fill="#000000" opacity="1.000000" stroke="none" 
	d="
M807.000000,501.000000 
	C538.000000,501.000000 269.500031,501.000000 1.000036,501.000000 
	C1.000024,334.333374 1.000024,167.666718 1.000012,1.000058 
	C417.666626,1.000039 834.333252,1.000039 1251.000000,1.000020 
	C1251.000000,167.666611 1251.000000,334.333221 1251.000000,500.999908 
	C1103.166626,501.000000 955.333313,501.000000 807.000000,501.000000 
M301.027191,291.870605 
	C301.073578,293.915222 301.119934,295.959808 301.077881,298.751984 
	C301.367218,301.794403 301.656555,304.836823 301.219666,308.325226 
	C300.204102,315.220673 299.188538,322.116119 297.801117,329.703552 
	C290.411987,357.671783 274.009216,379.038574 249.456406,393.893341 
	C224.514297,408.983582 197.503693,411.936768 168.578979,404.815460 
	C171.109329,409.675690 172.613373,414.173370 175.414597,417.615387 
	C181.532822,425.133179 187.781403,432.703064 194.962143,439.154938 
	C202.663834,446.074890 210.910828,452.825745 219.971527,457.692352 
	C233.459091,464.936646 247.680771,471.109192 263.380463,472.118347 
	C274.920105,472.860046 286.552277,474.420624 298.001495,473.611420 
	C307.483154,472.941345 316.722168,469.181854 326.132904,467.078461 
	C338.581879,464.295990 349.751251,458.314667 359.871185,451.222443 
	C371.994232,442.726379 382.949707,432.618469 391.613037,420.127441 
	C399.160278,409.245575 405.308807,397.910889 409.975128,385.516418 
	C416.592529,367.939789 417.866547,349.783600 416.795807,331.423370 
	C416.373199,324.176849 413.693817,317.061981 412.014008,309.048309 
	C410.383026,303.681091 408.752045,298.313843 406.812225,292.286682 
	C404.889801,288.145874 402.967407,284.005096 400.752075,279.255768 
	C399.851593,277.803192 398.951141,276.350586 398.006226,274.178040 
	C396.689240,272.413422 395.372284,270.648804 393.780396,268.274658 
	C391.555908,265.833344 389.331421,263.392029 387.006592,260.230133 
	C383.684937,256.449677 380.363312,252.669235 376.771881,248.278870 
	C372.545563,244.836929 368.319244,241.395004 363.757294,237.349625 
	C358.187225,233.890732 352.617126,230.431824 346.846283,226.559647 
	C346.657440,226.251083 346.390350,226.150818 345.310608,226.057175 
	C344.552124,225.998291 343.793640,225.939392 342.740692,225.249115 
	C334.718719,220.645264 326.479218,216.657806 316.315582,215.806808 
	C315.895569,215.561584 315.504456,215.212738 315.051300,215.086197 
	C301.828827,211.393631 288.289764,211.327911 274.777679,212.154465 
	C268.477386,212.539841 262.258331,214.252411 256.002472,215.363419 
	C255.905457,215.816895 255.808441,216.270370 255.711441,216.723846 
	C260.175751,219.929504 264.640076,223.135162 269.098297,227.102417 
	C272.717346,231.094849 276.336365,235.087296 279.989441,239.791199 
	C282.629303,243.541504 285.269196,247.291809 288.006805,251.774612 
	C289.965057,255.528046 291.923340,259.281464 293.987122,263.825867 
	C295.380585,267.552399 296.774048,271.278961 298.032471,275.828217 
	C298.744080,278.553192 299.455658,281.278198 300.031067,284.796478 
	C300.409546,286.865601 300.788055,288.934692 301.027191,291.870605 
M438.993927,315.004120 
	C439.330048,319.585236 439.127899,324.284698 440.104004,328.725128 
	C442.944550,341.646759 448.739349,352.757111 460.015472,360.666290 
	C469.619781,367.402863 480.316193,367.872528 491.121704,366.727173 
	C498.895599,365.903168 506.080139,357.090485 504.843353,350.844269 
	C503.156097,342.323151 500.744110,334.812164 487.668884,335.882996 
	C480.087952,336.503815 473.717377,331.886047 472.189301,325.141052 
	C470.972168,319.768463 470.108307,314.184784 470.091400,308.691742 
	C469.936157,258.201080 470.001190,207.709778 469.998657,157.218658 
	C469.998199,148.071228 464.691040,142.041641 456.622742,142.000229 
	C443.922821,141.935059 439.126923,145.979874 438.208740,157.373215 
	C438.142609,157.865753 438.018677,158.358261 438.018555,158.850815 
	C438.006348,209.409668 437.997040,259.968536 438.039795,310.527344 
	C438.040802,311.715912 438.633667,312.903961 438.993927,315.004120 
M313.238342,39.046326 
	C311.234833,38.045811 309.316162,36.794209 307.214539,36.084064 
	C288.639587,29.807556 269.651947,25.900808 249.924988,27.052443 
	C242.706467,27.473854 235.389313,27.871975 228.358994,29.396179 
	C220.883011,31.017002 213.425934,33.360287 206.446274,36.476067 
	C197.492599,40.473072 188.486465,44.782303 180.470337,50.349876 
	C168.180725,58.885593 156.881165,68.836281 148.833542,81.743156 
	C143.594040,90.146294 138.340225,98.631699 134.177429,107.584564 
	C131.144089,114.108345 129.757294,121.422081 127.869278,128.446228 
	C126.401596,133.906555 124.542763,139.412689 124.165497,144.986954 
	C123.025848,161.825394 124.470863,178.518036 129.059250,194.835052 
	C129.920441,197.897552 130.982513,200.941376 132.315491,203.825790 
	C135.378281,210.453445 138.307861,217.184341 141.956451,223.488495 
	C146.011826,230.495514 150.027512,237.797882 155.472641,243.659973 
	C162.436661,251.157242 170.452377,257.827087 178.685608,263.951874 
	C186.179184,269.526398 194.156891,274.831787 202.660095,278.579163 
	C215.865662,284.398956 229.952103,287.901947 244.439651,288.927521 
	C258.063782,289.891998 271.580536,288.796234 286.123932,285.200653 
	C261.296814,266.953461 245.777115,243.667953 240.978165,213.896713 
	C236.091858,183.583603 243.486710,155.760208 262.592987,132.445953 
	C290.864380,97.948036 327.892639,85.776062 372.952271,96.144913 
	C370.641968,92.319778 368.874237,89.358307 367.073334,86.417130 
	C357.926117,71.478035 345.733582,59.468227 331.269867,49.761555 
	C325.687134,46.014950 319.714233,42.849739 313.238342,39.046326 
M890.027588,342.542145 
	C893.941833,346.140472 897.520325,350.214478 901.828247,353.255066 
	C920.794067,366.641602 941.742859,371.076721 964.713318,367.080505 
	C990.665588,362.565521 1008.989014,348.048615 1021.217041,325.279297 
	C1026.188477,316.022064 1028.097168,305.953674 1029.267090,295.460602 
	C1030.531860,284.115997 1028.967285,273.415405 1026.290283,262.573181 
	C1023.469604,251.149338 1018.089661,240.961929 1010.455261,232.332947 
	C1005.236450,226.434250 998.704895,221.445877 992.064453,217.118271 
	C983.331665,211.427094 973.317810,209.181961 962.894165,207.739334 
	C947.638306,205.627914 933.719360,208.819229 920.632446,216.060867 
	C914.036194,219.710876 908.135010,224.616760 902.000061,228.898544 
	C902.000061,227.420837 902.000000,225.591003 902.000000,223.761169 
	C901.999939,201.773926 902.028625,179.786621 901.984070,157.799469 
	C901.968811,150.251556 897.877197,144.208084 891.651245,142.194580 
	C884.602844,139.915100 875.109863,142.688477 871.821350,148.966278 
	C869.951538,152.535721 869.136414,157.043686 869.115479,161.135513 
	C868.919861,199.279037 868.871887,237.424713 869.091064,275.567993 
	C869.144714,284.906799 869.727600,294.331940 871.140259,303.553009 
	C873.368530,318.097778 879.473572,331.072784 890.027588,342.542145 
M546.040527,308.253876 
	C545.239441,305.696350 544.438354,303.138824 543.455261,300.000183 
	C546.079590,300.000183 547.888794,300.000183 549.697998,300.000183 
	C582.360352,300.000183 615.022705,299.966675 647.684937,300.022186 
	C656.588501,300.037292 665.653137,294.317291 664.054138,283.797333 
	C662.780457,275.417023 662.959839,266.705994 660.804626,258.590485 
	C654.657776,235.444122 640.790039,218.678391 617.474976,211.068115 
	C603.574890,206.530991 589.429138,206.141037 574.912048,208.807312 
	C555.622925,212.350006 540.192322,222.025665 528.565369,237.217148 
	C517.919434,251.126892 513.648743,267.772766 513.110046,285.115173 
	C512.639099,300.278259 515.551147,314.925842 523.076355,328.339966 
	C531.468628,343.299683 543.386719,354.290558 559.289673,361.145966 
	C573.047974,367.076904 587.095703,369.395721 602.063354,368.123505 
	C618.323303,366.741516 633.239929,361.864075 646.563599,352.677643 
	C658.504089,344.444946 655.170288,334.649658 647.379089,329.318420 
	C640.577637,324.664368 633.357300,326.444885 626.719727,330.778687 
	C611.591309,340.656311 595.271362,343.283386 578.031921,337.888458 
	C563.120789,333.222198 552.805298,323.132751 546.040527,308.253876 
M713.523804,351.016083 
	C724.428833,359.567566 736.678467,364.743927 750.398499,367.166016 
	C760.405701,368.932678 770.439575,369.389038 780.185913,367.641571 
	C792.582214,365.418945 804.787354,361.736969 815.312073,354.221924 
	C819.180725,351.459503 823.991333,349.359741 824.952942,343.986633 
	C826.174622,337.160095 823.017761,331.652710 817.567261,328.439758 
	C812.480469,325.441193 806.488037,326.013519 801.236450,329.274536 
	C786.704346,338.298431 771.555298,342.796265 754.062622,339.199158 
	C735.875854,335.459290 718.238953,318.845184 715.093018,300.000244 
	C716.942993,300.000244 718.707458,300.000244 720.471985,300.000244 
	C753.297424,300.000275 786.124573,300.194489 818.947449,299.901550 
	C831.509827,299.789429 836.684082,292.811005 835.936279,281.756378 
	C835.596191,276.729614 834.781189,271.724274 833.981140,266.741394 
	C831.773987,252.994904 826.428894,240.550201 817.384338,229.961929 
	C803.869019,214.139816 785.797913,207.615936 765.674866,207.254852 
	C756.365173,207.087799 746.761353,208.736572 737.717651,211.156647 
	C714.210571,217.447037 698.923523,233.381744 690.127014,255.519409 
	C685.428406,267.343994 683.569458,279.907379 685.033630,292.714966 
	C685.789551,299.327271 686.362854,306.033722 687.965820,312.461395 
	C691.836426,327.981903 700.631897,340.474335 713.523804,351.016083 
M1104.999756,290.500000 
	C1104.999756,268.177612 1105.094849,245.854614 1104.952637,223.533142 
	C1104.896606,214.726166 1098.231689,207.867416 1088.796265,208.135239 
	C1079.889038,208.388107 1072.944702,213.704147 1072.963989,223.508499 
	C1073.047974,266.487274 1072.989624,309.466309 1073.037842,352.445221 
	C1073.039795,354.189301 1073.272095,356.071655 1073.949219,357.653168 
	C1077.353149,365.602936 1084.729736,368.968719 1093.903809,366.962708 
	C1100.373657,365.547974 1104.996460,358.896851 1104.998413,350.970856 
	C1105.003052,331.147247 1104.999756,311.323608 1104.999756,290.500000 
M1098.148315,183.975662 
	C1098.670410,183.580002 1099.157227,183.123383 1099.719971,182.797852 
	C1107.737915,178.159714 1109.995972,170.775513 1108.915039,162.243774 
	C1107.966919,154.761261 1103.463745,149.950455 1096.504883,146.790833 
	C1084.380859,141.286011 1067.875977,150.402008 1068.153442,165.779190 
	C1068.433716,181.308594 1084.585938,190.399399 1098.148315,183.975662 
z"/>
<path fill="#FFBA12" opacity="1.000000" stroke="none" 
	d="
M313.578735,39.232986 
	C319.714233,42.849739 325.687134,46.014950 331.269867,49.761555 
	C345.733582,59.468227 357.926117,71.478035 367.073334,86.417130 
	C368.874237,89.358307 370.641968,92.319778 372.952271,96.144913 
	C327.892639,85.776062 290.864380,97.948036 262.592987,132.445953 
	C243.486710,155.760208 236.091858,183.583603 240.978165,213.896713 
	C245.777115,243.667953 261.296814,266.953461 286.123932,285.200653 
	C271.580536,288.796234 258.063782,289.891998 244.439651,288.927521 
	C229.952103,287.901947 215.865662,284.398956 202.660095,278.579163 
	C194.156891,274.831787 186.179184,269.526398 178.685608,263.951874 
	C170.452377,257.827087 162.436661,251.157242 155.472641,243.659973 
	C150.027512,237.797882 146.011826,230.495514 141.956451,223.488495 
	C138.307861,217.184341 135.378281,210.453445 132.315491,203.825790 
	C130.982513,200.941376 129.920441,197.897552 129.059250,194.835052 
	C124.470863,178.518036 123.025848,161.825394 124.165497,144.986954 
	C124.542763,139.412689 126.401596,133.906555 127.869278,128.446228 
	C129.757294,121.422081 131.144089,114.108345 134.177429,107.584564 
	C138.340225,98.631699 143.594040,90.146294 148.833542,81.743156 
	C156.881165,68.836281 168.180725,58.885593 180.470337,50.349876 
	C188.486465,44.782303 197.492599,40.473072 206.446274,36.476067 
	C213.425934,33.360287 220.883011,31.017002 228.358994,29.396179 
	C235.389313,27.871975 242.706467,27.473854 249.924988,27.052443 
	C269.651947,25.900808 288.639587,29.807556 307.214539,36.084064 
	C309.316162,36.794209 311.234833,38.045811 313.578735,39.232986 
z"/>
<path fill="#FFBA12" opacity="1.000000" stroke="none" 
	d="
M412.042053,309.887146 
	C413.693817,317.061981 416.373199,324.176849 416.795807,331.423370 
	C417.866547,349.783600 416.592529,367.939789 409.975128,385.516418 
	C405.308807,397.910889 399.160278,409.245575 391.613037,420.127441 
	C382.949707,432.618469 371.994232,442.726379 359.871185,451.222443 
	C349.751251,458.314667 338.581879,464.295990 326.132904,467.078461 
	C316.722168,469.181854 307.483154,472.941345 298.001495,473.611420 
	C286.552277,474.420624 274.920105,472.860046 263.380463,472.118347 
	C247.680771,471.109192 233.459091,464.936646 219.971527,457.692352 
	C210.910828,452.825745 202.663834,446.074890 194.962143,439.154938 
	C187.781403,432.703064 181.532822,425.133179 175.414597,417.615387 
	C172.613373,414.173370 171.109329,409.675690 168.578979,404.815460 
	C197.503693,411.936768 224.514297,408.983582 249.456406,393.893341 
	C274.009216,379.038574 290.411987,357.671783 298.428467,329.355286 
	C301.054504,328.969696 303.089966,329.166840 305.046448,328.860199 
	C338.871429,323.558929 372.692139,318.229370 406.490021,312.759125 
	C408.444458,312.442780 410.196045,310.873383 412.042053,309.887146 
z"/>
<path fill="#FFBA12" opacity="1.000000" stroke="none" 
	d="
M889.777466,342.280365 
	C879.473572,331.072784 873.368530,318.097778 871.140259,303.553009 
	C869.727600,294.331940 869.144714,284.906799 869.091064,275.567993 
	C868.871887,237.424713 868.919861,199.279037 869.115479,161.135513 
	C869.136414,157.043686 869.951538,152.535721 871.821350,148.966278 
	C875.109863,142.688477 884.602844,139.915100 891.651245,142.194580 
	C897.877197,144.208084 901.968811,150.251556 901.984070,157.799469 
	C902.028625,179.786621 901.999939,201.773926 902.000000,223.761169 
	C902.000000,225.591003 902.000061,227.420837 902.000061,228.898544 
	C908.135010,224.616760 914.036194,219.710876 920.632446,216.060867 
	C933.719360,208.819229 947.638306,205.627914 962.894165,207.739334 
	C973.317810,209.181961 983.331665,211.427094 992.064453,217.118271 
	C998.704895,221.445877 1005.236450,226.434250 1010.455261,232.332947 
	C1018.089661,240.961929 1023.469604,251.149338 1026.290283,262.573181 
	C1028.967285,273.415405 1030.531860,284.115997 1029.267090,295.460602 
	C1028.097168,305.953674 1026.188477,316.022064 1021.217041,325.279297 
	C1008.989014,348.048615 990.665588,362.565521 964.713318,367.080505 
	C941.742859,371.076721 920.794067,366.641602 901.828247,353.255066 
	C897.520325,350.214478 893.941833,346.140472 889.777466,342.280365 
M907.960693,315.441559 
	C912.681885,320.633606 916.825256,326.555328 922.253967,330.853790 
	C931.347839,338.054291 942.295532,339.696747 953.812439,339.085327 
	C968.958191,338.281219 980.499146,330.814880 988.775757,319.107635 
	C999.609131,303.783630 1001.216064,286.446014 994.931763,268.790497 
	C986.454712,244.974579 969.126892,236.748978 948.913635,236.272156 
	C939.306519,236.045517 929.771057,238.824875 921.598694,244.994781 
	C909.313904,254.269302 902.697266,266.623657 901.071594,281.654572 
	C899.813049,293.291321 902.137024,304.427673 907.960693,315.441559 
z"/>
<path fill="#FFBA12" opacity="1.000000" stroke="none" 
	d="
M546.231934,308.600525 
	C552.805298,323.132751 563.120789,333.222198 578.031921,337.888458 
	C595.271362,343.283386 611.591309,340.656311 626.719727,330.778687 
	C633.357300,326.444885 640.577637,324.664368 647.379089,329.318420 
	C655.170288,334.649658 658.504089,344.444946 646.563599,352.677643 
	C633.239929,361.864075 618.323303,366.741516 602.063354,368.123505 
	C587.095703,369.395721 573.047974,367.076904 559.289673,361.145966 
	C543.386719,354.290558 531.468628,343.299683 523.076355,328.339966 
	C515.551147,314.925842 512.639099,300.278259 513.110046,285.115173 
	C513.648743,267.772766 517.919434,251.126892 528.565369,237.217148 
	C540.192322,222.025665 555.622925,212.350006 574.912048,208.807312 
	C589.429138,206.141037 603.574890,206.530991 617.474976,211.068115 
	C640.790039,218.678391 654.657776,235.444122 660.804626,258.590485 
	C662.959839,266.705994 662.780457,275.417023 664.054138,283.797333 
	C665.653137,294.317291 656.588501,300.037292 647.684937,300.022186 
	C615.022705,299.966675 582.360352,300.000183 549.697998,300.000183 
	C547.888794,300.000183 546.079590,300.000183 543.455261,300.000183 
	C544.438354,303.138824 545.239441,305.696350 546.231934,308.600525 
M594.500000,274.000214 
	C607.604797,274.000214 620.709595,274.000214 633.829468,274.000214 
	C633.104431,257.107941 619.363770,236.849899 595.921509,235.035233 
	C570.161438,233.041107 548.275208,248.601196 544.199280,273.563477 
	C544.496704,273.693085 544.793884,273.935486 545.091614,273.936127 
	C561.227722,273.970337 577.363831,273.984253 594.500000,274.000214 
z"/>
<path fill="#FFBA12" opacity="1.000000" stroke="none" 
	d="
M713.264526,350.761963 
	C700.631897,340.474335 691.836426,327.981903 687.965820,312.461395 
	C686.362854,306.033722 685.789551,299.327271 685.033630,292.714966 
	C683.569458,279.907379 685.428406,267.343994 690.127014,255.519409 
	C698.923523,233.381744 714.210571,217.447037 737.717651,211.156647 
	C746.761353,208.736572 756.365173,207.087799 765.674866,207.254852 
	C785.797913,207.615936 803.869019,214.139816 817.384338,229.961929 
	C826.428894,240.550201 831.773987,252.994904 833.981140,266.741394 
	C834.781189,271.724274 835.596191,276.729614 835.936279,281.756378 
	C836.684082,292.811005 831.509827,299.789429 818.947449,299.901550 
	C786.124573,300.194489 753.297424,300.000275 720.471985,300.000244 
	C718.707458,300.000244 716.942993,300.000244 715.093018,300.000244 
	C718.238953,318.845184 735.875854,335.459290 754.062622,339.199158 
	C771.555298,342.796265 786.704346,338.298431 801.236450,329.274536 
	C806.488037,326.013519 812.480469,325.441193 817.567261,328.439758 
	C823.017761,331.652710 826.174622,337.160095 824.952942,343.986633 
	C823.991333,349.359741 819.180725,351.459503 815.312073,354.221924 
	C804.787354,361.736969 792.582214,365.418945 780.185913,367.641571 
	C770.439575,369.389038 760.405701,368.932678 750.398499,367.166016 
	C736.678467,364.743927 724.428833,359.567566 713.264526,350.761963 
M804.070251,267.333771 
	C801.895813,256.517517 795.578735,248.332611 786.933960,242.080566 
	C777.033630,234.920441 765.836731,234.168655 753.884338,235.848282 
	C734.069153,238.632797 718.255188,253.745178 715.503967,273.832520 
	C745.587524,273.832520 775.660645,273.832520 805.922913,273.832520 
	C805.427429,271.767548 804.978821,269.897797 804.070251,267.333771 
z"/>
<path fill="#FFBA12" opacity="1.000000" stroke="none" 
	d="
M438.950653,156.904709 
	C439.126923,145.979874 443.922821,141.935059 456.622742,142.000229 
	C464.691040,142.041641 469.998199,148.071228 469.998657,157.218658 
	C470.001190,207.709778 469.936157,258.201080 470.091400,308.691742 
	C470.108307,314.184784 470.972168,319.768463 472.189301,325.141052 
	C473.717377,331.886047 480.087952,336.503815 487.668884,335.882996 
	C500.744110,334.812164 503.156097,342.323151 504.843353,350.844269 
	C506.080139,357.090485 498.895599,365.903168 491.121704,366.727173 
	C480.316193,367.872528 469.619781,367.402863 460.015472,360.666290 
	C448.739349,352.757111 442.944550,341.646759 440.104004,328.725128 
	C439.127899,324.284698 439.330048,319.585236 438.983643,314.074402 
	C438.965759,261.064697 438.958221,208.984711 438.950653,156.904709 
z"/>
<path fill="#FFBA12" opacity="1.000000" stroke="none" 
	d="
M1104.999756,291.000000 
	C1104.999756,311.323608 1105.003052,331.147247 1104.998413,350.970856 
	C1104.996460,358.896851 1100.373657,365.547974 1093.903809,366.962708 
	C1084.729736,368.968719 1077.353149,365.602936 1073.949219,357.653168 
	C1073.272095,356.071655 1073.039795,354.189301 1073.037842,352.445221 
	C1072.989624,309.466309 1073.047974,266.487274 1072.963989,223.508499 
	C1072.944702,213.704147 1079.889038,208.388107 1088.796265,208.135239 
	C1098.231689,207.867416 1104.896606,214.726166 1104.952637,223.533142 
	C1105.094849,245.854614 1104.999756,268.177612 1104.999756,291.000000 
z"/>
<path fill="#F2B111" opacity="1.000000" stroke="none" 
	d="
M412.028015,309.467712 
	C410.196045,310.873383 408.444458,312.442780 406.490021,312.759125 
	C372.692139,318.229370 338.871429,323.558929 305.046448,328.860199 
	C303.089966,329.166840 301.054504,328.969696 298.614380,329.009277 
	C299.188538,322.116119 300.204102,315.220673 301.773376,308.391205 
	C304.672241,308.531708 307.071655,308.966614 309.353790,308.622925 
	C325.753052,306.153259 342.135773,303.570465 358.509521,300.935333 
	C374.722015,298.326202 390.917908,295.613770 407.121063,292.946625 
	C408.752045,298.313843 410.383026,303.681091 412.028015,309.467712 
z"/>
<path fill="#FFBA12" opacity="1.000000" stroke="none" 
	d="
M1097.763428,184.060745 
	C1084.585938,190.399399 1068.433716,181.308594 1068.153442,165.779190 
	C1067.875977,150.402008 1084.380859,141.286011 1096.504883,146.790833 
	C1103.463745,149.950455 1107.966919,154.761261 1108.915039,162.243774 
	C1109.995972,170.775513 1107.737915,178.159714 1099.719971,182.797852 
	C1099.157227,183.123383 1098.670410,183.580002 1097.763428,184.060745 
z"/>
<path fill="#E9AA10" opacity="1.000000" stroke="none" 
	d="
M406.966644,292.616638 
	C390.917908,295.613770 374.722015,298.326202 358.509521,300.935333 
	C342.135773,303.570465 325.753052,306.153259 309.353790,308.622925 
	C307.071655,308.966614 304.672241,308.531708 302.136505,308.168213 
	C301.656555,304.836823 301.367218,301.794403 301.539490,298.375153 
	C320.217438,295.196075 338.442780,292.450897 356.647034,289.572418 
	C369.769348,287.497467 382.879669,285.333923 395.951904,282.969666 
	C397.777100,282.639526 399.353424,280.933441 401.044983,279.864288 
	C402.967407,284.005096 404.889801,288.145874 406.966644,292.616638 
z"/>
<path fill="#D69C0F" opacity="1.000000" stroke="none" 
	d="
M298.167542,275.005493 
	C296.774048,271.278961 295.380585,267.552399 294.375732,263.422546 
	C296.086487,262.945007 297.426727,262.985413 298.728027,262.779602 
	C321.585480,259.164154 344.447418,255.575012 367.281616,251.817169 
	C370.605591,251.270126 373.791718,249.885696 377.041656,248.888779 
	C380.363312,252.669235 383.684937,256.449677 386.692139,260.748230 
	C385.582947,261.492828 384.801758,261.804504 383.991516,261.933319 
	C367.002655,264.634125 350.019592,267.373718 333.015869,269.977905 
	C321.415192,271.754608 309.784698,273.336517 298.167542,275.005493 
z"/>
<path fill="#CD960E" opacity="1.000000" stroke="none" 
	d="
M376.906769,248.583832 
	C373.791718,249.885696 370.605591,251.270126 367.281616,251.817169 
	C344.447418,255.575012 321.585480,259.164154 298.728027,262.779602 
	C297.426727,262.985413 296.086487,262.945007 294.322998,263.027039 
	C291.923340,259.281464 289.965057,255.528046 288.327393,251.249054 
	C296.160217,249.477844 303.676636,248.256653 311.183929,246.981583 
	C328.822571,243.985779 346.456848,240.964218 364.092896,237.953064 
	C368.319244,241.395004 372.545563,244.836929 376.906769,248.583832 
z"/>
<path fill="#C5900D" opacity="1.000000" stroke="none" 
	d="
M363.925110,237.651337 
	C346.456848,240.964218 328.822571,243.985779 311.183929,246.981583 
	C303.676636,248.256653 296.160217,249.477844 288.278503,250.882812 
	C285.269196,247.291809 282.629303,243.541504 280.260437,239.191330 
	C281.931030,238.099213 283.294312,237.381241 284.735809,237.149094 
	C301.891174,234.386353 319.070984,231.772110 336.207458,228.898712 
	C338.585205,228.500031 340.764160,226.915848 343.035156,225.880493 
	C343.793640,225.939392 344.552124,225.998291 345.820435,226.309052 
	C346.540710,226.747757 346.779663,226.885086 347.047058,226.972931 
	C352.617126,230.431824 358.187225,233.890732 363.925110,237.651337 
z"/>
<path fill="#BD8A0D" opacity="1.000000" stroke="none" 
	d="
M342.887939,225.564789 
	C340.764160,226.915848 338.585205,228.500031 336.207458,228.898712 
	C319.070984,231.772110 301.891174,234.386353 284.735809,237.149094 
	C283.294312,237.381241 281.931030,238.099213 280.243408,238.835602 
	C276.336365,235.087296 272.717346,231.094849 269.553925,226.610565 
	C284.159607,223.759827 298.321594,221.467651 312.443634,218.951569 
	C314.077759,218.660431 315.490295,217.125717 317.005585,216.167572 
	C326.479218,216.657806 334.718719,220.645264 342.887939,225.564789 
z"/>
<path fill="#DCA10F" opacity="1.000000" stroke="none" 
	d="
M298.100006,275.416870 
	C309.784698,273.336517 321.415192,271.754608 333.015869,269.977905 
	C350.019592,267.373718 367.002655,264.634125 383.991516,261.933319 
	C384.801758,261.804504 385.582947,261.492828 386.742310,261.108521 
	C389.331421,263.392029 391.555908,265.833344 393.607056,268.819946 
	C390.677429,269.906555 387.933746,270.525177 385.162811,270.976562 
	C367.172424,273.907440 349.188416,276.881226 331.176941,279.677582 
	C320.865082,281.278534 310.505402,282.571533 300.167267,284.003174 
	C299.455658,281.278198 298.744080,278.553192 298.100006,275.416870 
z"/>
<path fill="#E4A610" opacity="1.000000" stroke="none" 
	d="
M400.898529,279.560028 
	C399.353424,280.933441 397.777100,282.639526 395.951904,282.969666 
	C382.879669,285.333923 369.769348,287.497467 356.647034,289.572418 
	C338.442780,292.450897 320.217438,295.196075 301.583740,298.001373 
	C301.119934,295.959808 301.073578,293.915222 301.520020,291.435944 
	C303.008118,290.969543 304.020355,291.044830 304.996216,290.890442 
	C332.803406,286.491608 360.613342,282.109070 388.402588,277.599060 
	C391.678467,277.067413 394.837463,275.815857 398.050659,274.898010 
	C398.951141,276.350586 399.851593,277.803192 400.898529,279.560028 
z"/>
<path fill="#E0A410" opacity="1.000000" stroke="none" 
	d="
M398.028442,274.538025 
	C394.837463,275.815857 391.678467,277.067413 388.402588,277.599060 
	C360.613342,282.109070 332.803406,286.491608 304.996216,290.890442 
	C304.020355,291.044830 303.008118,290.969543 301.589691,291.002563 
	C300.788055,288.934692 300.409546,286.865601 300.099182,284.399811 
	C310.505402,282.571533 320.865082,281.278534 331.176941,279.677582 
	C349.188416,276.881226 367.172424,273.907440 385.162811,270.976562 
	C387.933746,270.525177 390.677429,269.906555 393.744507,269.124695 
	C395.372284,270.648804 396.689240,272.413422 398.028442,274.538025 
z"/>
<path fill="#B6850C" opacity="1.000000" stroke="none" 
	d="
M316.660583,215.987183 
	C315.490295,217.125717 314.077759,218.660431 312.443634,218.951569 
	C298.321594,221.467651 284.159607,223.759827 269.556976,226.229767 
	C264.640076,223.135162 260.175751,219.929504 255.711441,216.723846 
	C255.808441,216.270370 255.905457,215.816895 256.002472,215.363419 
	C262.258331,214.252411 268.477386,212.539841 274.777679,212.154465 
	C288.289764,211.327911 301.828827,211.393631 315.051300,215.086197 
	C315.504456,215.212738 315.895569,215.561584 316.660583,215.987183 
z"/>
<path fill="#FFC400" opacity="1.000000" stroke="none" 
	d="
M438.579712,157.138962 
	C438.958221,208.984711 438.965759,261.064697 438.961914,313.618469 
	C438.633667,312.903961 438.040802,311.715912 438.039795,310.527344 
	C437.997040,259.968536 438.006348,209.409668 438.018555,158.850815 
	C438.018677,158.358261 438.142609,157.865753 438.579712,157.138962 
z"/>
<path fill="#BD8A0D" opacity="1.000000" stroke="none" 
	d="
M346.946655,226.766296 
	C346.779663,226.885086 346.540710,226.747757 346.187622,226.409866 
	C346.390350,226.150818 346.657440,226.251083 346.946655,226.766296 
z"/>
<path fill="#000000" opacity="1.000000" stroke="none" 
	d="
M907.686646,315.176086 
	C902.137024,304.427673 899.813049,293.291321 901.071594,281.654572 
	C902.697266,266.623657 909.313904,254.269302 921.598694,244.994781 
	C929.771057,238.824875 939.306519,236.045517 948.913635,236.272156 
	C969.126892,236.748978 986.454712,244.974579 994.931763,268.790497 
	C1001.216064,286.446014 999.609131,303.783630 988.775757,319.107635 
	C980.499146,330.814880 968.958191,338.281219 953.812439,339.085327 
	C942.295532,339.696747 931.347839,338.054291 922.253967,330.853790 
	C916.825256,326.555328 912.681885,320.633606 907.686646,315.176086 
z"/>
<path fill="#000000" opacity="1.000000" stroke="none" 
	d="
M594.000000,274.000214 
	C577.363831,273.984253 561.227722,273.970337 545.091614,273.936127 
	C544.793884,273.935486 544.496704,273.693085 544.200134,273.561462 
	C548.275208,248.601196 570.161438,233.041107 595.921509,235.035233 
	C619.363770,236.849899 633.104431,257.107941 633.829468,274.000214 
	C620.709595,274.000214 607.604797,274.000214 594.000000,274.000214 
z"/>
<path fill="#000000" opacity="1.000000" stroke="none" 
	d="
M804.300171,267.680908 
	C804.978821,269.897797 805.427429,271.767548 805.922913,273.832520 
	C775.660645,273.832520 745.587524,273.832520 715.503967,273.832520 
	C718.255188,253.745178 734.069153,238.632797 753.884338,235.848282 
	C765.836731,234.168655 777.033630,234.920441 786.933960,242.080566 
	C795.578735,248.332611 801.895813,256.517517 804.300171,267.680908 
z"/>
</svg>