<?xml version="1.0" encoding="UTF-8" standalone="no" ?>
<!DOCTYPE svg PUBLIC "-//W3C//DTD SVG 1.1//EN" "http://www.w3.org/Graphics/SVG/1.1/DTD/svg11.dtd">
<svg xmlns="http://www.w3.org/2000/svg" xmlns:xlink="http://www.w3.org/1999/xlink" version="1.1" width="1250" height="500" viewBox="0 0 500 200" xml:space="preserve">
<desc>Created with Fabric.js 5.3.0</desc>
<defs>
</defs>
<g transform="matrix(0.4445661332 -0.0704123582 0.0704123582 0.4445661332 114.9426166973 136.7197310559)" id="jI8ZNE3CIuYTQQEWSg3M8"  >
<linearGradient id="SVGID_7_0" gradientUnits="userSpaceOnUse" gradientTransform="matrix(1 0 0 1 2.35e-7 0)"  x1="113.164905" y1="231.47993999999997" x2="113.164905" y2="2.842170943040401e-14">
<stop offset="0%" style="stop-color:rgb(255,186,18);stop-opacity: 1"/>
<stop offset="50%" style="stop-color:rgb(255,186,18);stop-opacity: 1"/>
<stop offset="100%" style="stop-color:rgb(178,130,12);stop-opacity: 1"/>
</linearGradient>
<path style="stroke: rgb(186,179,27); stroke-width: 0; stroke-dasharray: none; stroke-linecap: butt; stroke-dashoffset: 0; stroke-linejoin: miter; stroke-miterlimit: 4; fill: url(#SVGID_7_0); fill-rule: nonzero; opacity: 1;"  transform=" translate(-113.164905, -115.73997)" d="M 109.66333 0 C 174.06323 0 226.32981 51.85151 226.32981 115.73997 C 226.32981 179.62844 174.06323 231.47994 109.66333 231.47994 C 59.268840000000004 231.47994 16.304119999999998 199.72896 0 155.30512 C 11.44968 160.24282 24.06886 162.97884 37.32319 162.97884 C 89.43482 162.97884 131.72832 120.68534 131.72832 68.57370999999999 C 131.72832 41.68974999999999 120.47214 17.41881999999999 102.41871 0.21985999999999706 C 104.81482 0.07399999999999707 107.23042000000001 -2.942091015256665e-15 109.66333 -2.942091015256665e-15 z" stroke-linecap="round" />
</g>
<g transform="matrix(-0.4445661332 0.0704123582 -0.0704123582 -0.4445661332 100.2980862234 63.2472049155)" id="6ZZpv9W9AHLRKDaENnE08"  >
<path style="stroke: rgb(186,179,27); stroke-width: 0; stroke-dasharray: none; stroke-linecap: butt; stroke-dashoffset: 0; stroke-linejoin: miter; stroke-miterlimit: 4; fill: rgb(255,186,18); fill-rule: nonzero; opacity: 1;"  transform=" translate(-113.164905, -115.73997)" d="M 109.66333 0 C 174.06323 0 226.32981 51.85151 226.32981 115.73997 C 226.32981 179.62844 174.06323 231.47994 109.66333 231.47994 C 59.268840000000004 231.47994 16.304119999999998 199.72896 0 155.30512 C 11.44968 160.24282 24.06886 162.97884 37.32319 162.97884 C 89.43482 162.97884 131.72832 120.68534 131.72832 68.57370999999999 C 131.72832 41.68974999999999 120.47214 17.41881999999999 102.41871 0.21985999999999706 C 104.81482 0.07399999999999707 107.23042000000001 -2.942091015256665e-15 109.66333 -2.942091015256665e-15 z" stroke-linecap="round" />
</g>
<g transform="matrix(0.400545205 0 0 0.400545205 379.5692306048 102.1079964563)" id="upS4e6ezzTf6iRKB-5RVO"  >
<path style="stroke: none; stroke-width: 1; stroke-dasharray: none; stroke-linecap: butt; stroke-dashoffset: 0; stroke-linejoin: miter; stroke-miterlimit: 4; fill: rgb(255,186,18); fill-rule: nonzero; opacity: 1;"  transform=" translate(-949.3295533387, -254.949398041)" d="M 889.777466 342.280365 C 879.473572 331.072784 873.36853 318.097778 871.140259 303.553009 C 869.7276 294.33194 869.144714 284.906799 869.091064 275.567993 C 868.871887 237.424713 868.919861 199.279037 869.115479 161.135513 C 869.136414 157.043686 869.951538 152.535721 871.82135 148.966278 C 875.109863 142.688477 884.602844 139.9151 891.651245 142.19458 C 897.877197 144.208084 901.968811 150.251556 901.98407 157.799469 C 902.028625 179.786621 901.999939 201.773926 902 223.761169 C 902 225.591003 902.000061 227.420837 902.000061 228.898544 C 908.13501 224.61676 914.036194 219.710876 920.632446 216.060867 C 933.71936 208.819229 947.638306 205.627914 962.894165 207.739334 C 973.31781 209.181961 983.331665 211.427094 992.064453 217.118271 C 998.704895 221.445877 1005.23645 226.43425 1010.455261 232.332947 C 1018.089661 240.961929 1023.469604 251.149338 1026.290283 262.573181 C 1028.967285 273.415405 1030.53186 284.115997 1029.26709 295.460602 C 1028.097168 305.953674 1026.188477 316.022064 1021.217041 325.279297 C 1008.989014 348.048615 990.665588 362.565521 964.713318 367.080505 C 941.742859 371.076721 920.794067 366.641602 901.828247 353.255066 C 897.520325 350.214478 893.941833 346.140472 889.777466 342.280365 M 907.960693 315.441559 C 912.681885 320.633606 916.825256 326.555328 922.253967 330.85379 C 931.347839 338.054291 942.295532 339.696747 953.812439 339.085327 C 968.958191 338.281219 980.499146 330.81488 988.775757 319.107635 C 999.609131 303.78363 1001.216064 286.446014 994.931763 268.790497 C 986.454712 244.974579 969.126892 236.748978 948.913635 236.272156 C 939.306519 236.045517 929.771057 238.824875 921.598694 244.994781 C 909.313904 254.269302 902.697266 266.623657 901.071594 281.654572 C 899.813049 293.291321 902.137024 304.427673 907.960693 315.441559 z" stroke-linecap="round" />
</g>
<g transform="matrix(0.400545205 0 0 0.400545205 235.1007831775 115.2672586003)" id="JUU8bk0O3aGadH4HlFwwQ"  >
<path style="stroke: none; stroke-width: 1; stroke-dasharray: none; stroke-linecap: butt; stroke-dashoffset: 0; stroke-linejoin: miter; stroke-miterlimit: 4; fill: rgb(255,186,18); fill-rule: nonzero; opacity: 1;"  transform=" translate(-588.6500454289, -287.802773841)" d="M 546.231934 308.600525 C 552.805298 323.132751 563.120789 333.222198 578.031921 337.888458 C 595.271362 343.283386 611.591309 340.656311 626.719727 330.778687 C 633.3573 326.444885 640.577637 324.664368 647.379089 329.31842 C 655.170288 334.649658 658.504089 344.444946 646.563599 352.677643 C 633.239929 361.864075 618.323303 366.741516 602.063354 368.123505 C 587.095703 369.395721 573.047974 367.076904 559.289673 361.145966 C 543.386719 354.290558 531.468628 343.299683 523.076355 328.339966 C 515.551147 314.925842 512.639099 300.278259 513.110046 285.115173 C 513.648743 267.772766 517.919434 251.126892 528.565369 237.217148 C 540.192322 222.025665 555.622925 212.350006 574.912048 208.807312 C 589.429138 206.141037 603.57489 206.530991 617.474976 211.068115 C 640.790039 218.678391 654.657776 235.444122 660.804626 258.590485 C 662.959839 266.705994 662.780457 275.417023 664.054138 283.797333 C 665.653137 294.317291 656.588501 300.037292 647.684937 300.022186 C 615.022705 299.966675 582.360352 300.000183 549.697998 300.000183 C 547.888794 300.000183 546.07959 300.000183 543.455261 300.000183 C 544.438354 303.138824 545.239441 305.69635 546.231934 308.600525 M 594.5 274.000214 C 607.604797 274.000214 620.709595 274.000214 633.829468 274.000214 C 633.104431 257.107941 619.36377 236.849899 595.921509 235.035233 C 570.161438 233.041107 548.275208 248.601196 544.19928 273.563477 C 544.496704 273.693085 544.793884 273.935486 545.091614 273.936127 C 561.227722 273.970337 577.363831 273.984253 594.5 274.000214 z" stroke-linecap="round" />
</g>
<g transform="matrix(0.400545205 0 0 0.400545205 303.8445822447 115.3437989717)" id="8pSffd2ravmiDqAep7aaD"  >
<path style="stroke: none; stroke-width: 1; stroke-dasharray: none; stroke-linecap: butt; stroke-dashoffset: 0; stroke-linejoin: miter; stroke-miterlimit: 4; fill: rgb(255,186,18); fill-rule: nonzero; opacity: 1;"  transform=" translate(-760.2756153091, -287.9938643108)" d="M 713.264526 350.761963 C 700.631897 340.474335 691.836426 327.981903 687.96582 312.461395 C 686.362854 306.033722 685.789551 299.327271 685.03363 292.714966 C 683.569458 279.907379 685.428406 267.343994 690.127014 255.519409 C 698.923523 233.381744 714.210571 217.447037 737.717651 211.156647 C 746.761353 208.736572 756.365173 207.087799 765.674866 207.254852 C 785.797913 207.615936 803.869019 214.139816 817.384338 229.961929 C 826.428894 240.550201 831.773987 252.994904 833.98114 266.741394 C 834.781189 271.724274 835.596191 276.729614 835.936279 281.756378 C 836.684082 292.811005 831.509827 299.789429 818.947449 299.90155 C 786.124573 300.194489 753.297424 300.000275 720.471985 300.000244 C 718.707458 300.000244 716.942993 300.000244 715.093018 300.000244 C 718.238953 318.845184 735.875854 335.45929 754.062622 339.199158 C 771.555298 342.796265 786.704346 338.298431 801.23645 329.274536 C 806.488037 326.013519 812.480469 325.441193 817.567261 328.439758 C 823.017761 331.65271 826.174622 337.160095 824.952942 343.986633 C 823.991333 349.359741 819.180725 351.459503 815.312073 354.221924 C 804.787354 361.736969 792.582214 365.418945 780.185913 367.641571 C 770.439575 369.389038 760.405701 368.932678 750.398499 367.166016 C 736.678467 364.743927 724.428833 359.567566 713.264526 350.761963 M 804.070251 267.333771 C 801.895813 256.517517 795.578735 248.332611 786.93396 242.080566 C 777.03363 234.920441 765.836731 234.168655 753.884338 235.848282 C 734.069153 238.632797 718.255188 253.745178 715.503967 273.83252 C 745.587524 273.83252 775.660645 273.83252 805.922913 273.83252 C 805.427429 271.767548 804.978821 269.897797 804.070251 267.333771 z" stroke-linecap="round" />
</g>
<g transform="matrix(0.400545205 0 0 0.400545205 188.3638500732 101.9701974276)" id="3N5a5sIwOwXvGseBu2ovQ"  >
<path style="stroke: none; stroke-width: 1; stroke-dasharray: none; stroke-linecap: butt; stroke-dashoffset: 0; stroke-linejoin: miter; stroke-miterlimit: 4; fill: rgb(255,186,18); fill-rule: nonzero; opacity: 1;"  transform=" translate(-471.9667534474, -254.6053693846)" d="M 438.950653 156.904709 C 439.126923 145.979874 443.922821 141.935059 456.622742 142.000229 C 464.69104 142.041641 469.998199 148.071228 469.998657 157.218658 C 470.00119 207.709778 469.936157 258.20108 470.0914 308.691742 C 470.108307 314.184784 470.972168 319.768463 472.189301 325.141052 C 473.717377 331.886047 480.087952 336.503815 487.668884 335.882996 C 500.74411 334.812164 503.156097 342.323151 504.843353 350.844269 C 506.080139 357.090485 498.895599 365.903168 491.121704 366.727173 C 480.316193 367.872528 469.619781 367.402863 460.015472 360.66629 C 448.739349 352.757111 442.94455 341.646759 440.104004 328.725128 C 439.127899 324.284698 439.330048 319.585236 438.983643 314.074402 C 438.965759 261.064697 438.958221 208.984711 438.950653 156.904709 z" stroke-linecap="round" />
</g>
<g transform="matrix(0.400545205 0 0 0.400545205 435.5125240082 115.2776501642)" id="xemoi5RWn-AD8lgriD4MV"  >
<path style="stroke: none; stroke-width: 1; stroke-dasharray: none; stroke-linecap: butt; stroke-dashoffset: 0; stroke-linejoin: miter; stroke-miterlimit: 4; fill: rgb(255,186,18); fill-rule: nonzero; opacity: 1;"  transform=" translate(-1088.9974178094, -287.8287173894)" d="M 1104.999756 291 C 1104.999756 311.323608 1105.003052 331.147247 1104.998413 350.970856 C 1104.99646 358.896851 1100.373657 365.547974 1093.903809 366.962708 C 1084.729736 368.968719 1077.353149 365.602936 1073.949219 357.653168 C 1073.272095 356.071655 1073.039795 354.189301 1073.037842 352.445221 C 1072.989624 309.466309 1073.047974 266.487274 1072.963989 223.508499 C 1072.944702 213.704147 1079.889038 208.388107 1088.796265 208.135239 C 1098.231689 207.867416 1104.896606 214.726166 1104.952637 223.533142 C 1105.094849 245.854614 1104.999756 268.177612 1104.999756 291 z" stroke-linecap="round" />
</g>
<g transform="matrix(0.400545205 0 0 0.400545205 435.3769764 66.3345845752)" id="k0CxP-4EhrB-xmzBlR4cp"  >
<path style="stroke: none; stroke-width: 1; stroke-dasharray: none; stroke-linecap: butt; stroke-dashoffset: 0; stroke-linejoin: miter; stroke-miterlimit: 4; fill: rgb(255,186,18); fill-rule: nonzero; opacity: 1;"  transform=" translate(-1088.6590100429, -165.6376014287)" d="M 1097.763428 184.060745 C 1084.585938 190.399399 1068.433716 181.308594 1068.153442 165.77919 C 1067.875977 150.402008 1084.380859 141.286011 1096.504883 146.790833 C 1103.463745 149.950455 1107.966919 154.761261 1108.915039 162.243774 C 1109.995972 170.775513 1107.737915 178.159714 1099.719971 182.797852 C 1099.157227 183.123383 1098.67041 183.580002 1097.763428 184.060745 z" stroke-linecap="round" />
</g>
</svg>