<svg xmlns="http://www.w3.org/2000/svg" style="display: none;">
    <symbol id="icon-search" viewBox="0 0 24 24">
        <path d="m20.87 20.17-5.59-5.59C16.35 13.35 17 11.75 17 10c0-3.87-3.13-7-7-7s-7 3.13-7 7 3.13 7 7 7c1.75 0 3.35-.65 4.58-1.71l5.59 5.59.7-.71zM10 16c-3.31 0-6-2.69-6-6s2.69-6 6-6 6 2.69 6 6-2.69 6-6 6z"></path>
    </symbol>
    <symbol id="icon-burger" viewBox="0 0 24 24">
        <path d="M21 6H3V5h18v1zm0 5H3v1h18v-1zm0 6H3v1h18v-1z"></path>
    </symbol>
    <symbol id="icon-home" viewBox="0 0 24 24">
        <path d="M4 21V10.08l8-6.96 8 6.96V21h-6v-6h-4v6H4z"></path>
    </symbol>
    <symbol id="icon-options" viewBox="0 0 24 24">
        <path d="M12 16.5c.83 0 1.5.67 1.5 1.5s-.67 1.5-1.5 1.5-1.5-.67-1.5-1.5.67-1.5 1.5-1.5zM10.5 12c0 .83.67 1.5 1.5 1.5s1.5-.67 1.5-1.5-.67-1.5-1.5-1.5-1.5.67-1.5 1.5zm0-6c0 .83.67 1.5 1.5 1.5s1.5-.67 1.5-1.5-.67-1.5-1.5-1.5-1.5.67-1.5 1.5z"></path>
    </symbol>
    <symbol id="icon-share" viewBox="0 0 24 24">
        <path d="M15 5.63 20.66 12 15 18.37V14h-1c-3.96 0-7.14 1-9.75 3.09 1.84-4.07 5.11-6.4 9.89-7.1l.86-.13V5.63M14 3v6C6.22 10.13 3.11 15.33 2 21c2.78-3.97 6.44-6 12-6v6l8-9-8-9z"></path>
    </symbol>
    <symbol id="icon-download" viewBox="0 0 24 24">
        <path d="M17 18v1H6v-1h11zm-.5-6.6-.7-.7-3.8 3.7V4h-1v10.4l-3.8-3.8-.7.7 5 5 5-4.9z"></path>
    </symbol>
    <symbol id="icon-flag" viewBox="0 0 24 24">
        <path d="m13.18 4 .24 1.2.16.8H19v7h-5.18l-.24-1.2-.16-.8H6V4h7.18M14 3H5v18h1v-9h6.6l.4 2h7V5h-5.6L14 3z"></path>
    </symbol>
    <symbol id="icon-clock" viewBox="0 0 24 24">
        <path d="M14.97 16.95 10 13.87V7h2v5.76l4.03 2.49-1.06 1.7zM12 3c-4.96 0-9 4.04-9 9s4.04 9 9 9 9-4.04 9-9-4.04-9-9-9m0-1c5.52 0 10 4.48 10 10s-4.48 10-10 10S2 17.52 2 12 6.48 2 12 2z"></path>
    </symbol>
    <symbol id="icon-save-to-list" viewBox="0 0 24 24">
        <path d="M22 13h-4v4h-2v-4h-4v-2h4V7h2v4h4v2zm-8-6H2v1h12V7zM2 12h8v-1H2v1zm0 4h8v-1H2v1z"></path>
    </symbol>
    <symbol id="icon-user" viewBox="0 0 24 24">
        <path d="M12 2C6.48 2 2 6.48 2 12s4.48 10 10 10 10-4.48 10-10S17.52 2 12 2zm0 1c4.96 0 9 4.04 9 9 0 1.42-.34 2.76-.93 3.96-1.53-1.72-3.98-2.89-7.38-3.03A3.996 3.996 0 0016 9c0-2.21-1.79-4-4-4S8 6.79 8 9c0 1.97 1.43 3.6 3.31 3.93-3.4.14-5.85 1.31-7.38 3.03C3.34 14.76 3 13.42 3 12c0-4.96 4.04-9 9-9zM9 9c0-1.65 1.35-3 3-3s3 1.35 3 3-1.35 3-3 3-3-1.35-3-3zm3 12c-3.16 0-5.94-1.64-7.55-4.12C6.01 14.93 8.61 13.9 12 13.9c3.39 0 5.99 1.03 7.55 2.98C17.94 19.36 15.16 21 12 21z"></path>
    </symbol>
    <symbol id="icon-cross" viewBox="0 0 24 24">
        <path d="m12.71 12 8.15 8.15-.71.71L12 12.71l-8.15 8.15-.71-.71L11.29 12 3.15 3.85l.71-.71L12 11.29l8.15-8.15.71.71L12.71 12z"></path>
    </symbol>
    <symbol id="icon-clock-reverse" viewBox="0 0 24 24">
        <path d="M14.97 16.95 10 13.87V7h2v5.76l4.03 2.49-1.06 1.7zM22 12c0 5.51-4.49 10-10 10S2 17.51 2 12h1c0 4.96 4.04 9 9 9s9-4.04 9-9-4.04-9-9-9C8.81 3 5.92 4.64 4.28 7.38c-.11.18-.22.37-.31.56L3.94 8H8v1H1.96V3h1v4.74c.04-.09.07-.17.11-.25.11-.22.23-.42.35-.63C5.22 3.86 8.51 2 12 2c5.51 0 10 4.49 10 10z"></path>
    </symbol>
    <symbol id="icon-exit" viewBox="0 0 24 24">
        <path d="M20 3v18H8v-1h11V4H8V3h12zm-8.9 12.1.7.7 4.4-4.4L11.8 7l-.7.7 3.1 3.1H3v1h11.3l-3.2 3.3z"></path>
    </symbol>
    <symbol id="icon-gear" viewBox="0 0 24 24">
        <path d="M12 9.5c1.38 0 2.5 1.12 2.5 2.5s-1.12 2.5-2.5 2.5-2.5-1.12-2.5-2.5 1.12-2.5 2.5-2.5m0-1c-1.93 0-3.5 1.57-3.5 3.5s1.57 3.5 3.5 3.5 3.5-1.57 3.5-3.5-1.57-3.5-3.5-3.5zM13.22 3l.55 2.2.13.51.5.18c.61.23 1.19.56 1.72.98l.4.32.5-.14 2.17-.62 1.22 2.11-1.63 1.59-.37.36.08.51c.05.32.08.64.08.98s-.03.66-.08.98l-.08.51.37.36 1.63 1.59-1.22 2.11-2.17-.62-.5-.14-.4.32c-.53.43-1.11.76-1.72.98l-.5.18-.13.51-.55 2.24h-2.44l-.55-2.2-.13-.51-.5-.18c-.6-.23-1.18-.56-1.72-.99l-.4-.32-.5.14-2.17.62-1.21-2.12 1.63-1.59.37-.36-.08-.51c-.05-.32-.08-.65-.08-.98s.03-.66.08-.98l.08-.51-.37-.36L3.6 8.56l1.22-2.11 2.17.62.5.14.4-.32c.53-.44 1.11-.77 1.72-.99l.5-.18.13-.51.54-2.21h2.44M14 2h-4l-.74 2.96c-.73.27-1.4.66-2 1.14l-2.92-.83-2 3.46 2.19 2.13c-.06.37-.09.75-.09 1.14s.03.77.09 1.14l-2.19 2.13 2 3.46 2.92-.83c.6.48 1.27.87 2 1.14L10 22h4l.74-2.96c.73-.27 1.4-.66 2-1.14l2.92.83 2-3.46-2.19-2.13c.06-.37.09-.75.09-1.14s-.03-.77-.09-1.14l2.19-2.13-2-3.46-2.92.83c-.6-.48-1.27-.87-2-1.14L14 2z"></path>
    </symbol>
    <symbol id="icon-question" viewBox="0 0 24 24">
        <path d="M15.36 9.96c0 1.09-.67 1.67-1.31 2.24-.53.47-1.03.9-1.16 1.6l-.04.2H11.1l.03-.28c.14-1.17.8-1.76 1.47-2.27.52-.4 1.01-.77 1.01-1.49 0-.51-.23-.97-.63-1.29-.4-.31-.92-.42-1.42-.29-.59.15-1.05.67-1.19 1.34l-.05.28H8.57l.06-.42c.2-1.4 1.15-2.53 2.42-2.87 1.05-.29 2.14-.08 2.98.57.85.64 1.33 1.62 1.33 2.68zM12 18c.55 0 1-.45 1-1s-.45-1-1-1-1 .45-1 1 .45 1 1 1zm0-15c-4.96 0-9 4.04-9 9s4.04 9 9 9 9-4.04 9-9-4.04-9-9-9m0-1c5.52 0 10 4.48 10 10s-4.48 10-10 10S2 17.52 2 12 6.48 2 12 2z"></path>
    </symbol>
    <symbol id="icon-globe" viewBox="0 0 24 24">
        <path d="M11.99,1.98C6.46,1.98,1.98,6.47,1.98,12s4.48,10.02,10.01,10.02c5.54,0,10.03-4.49,10.03-10.02S17.53,1.98,11.99,1.98z M8.86,14.5c-0.16-0.82-0.25-1.65-0.25-2.5c0-0.87,0.09-1.72,0.26-2.55h6.27c0.17,0.83,0.26,1.68,0.26,2.55 c0,0.85-0.09,1.68-0.25,2.5H8.86z M14.89,15.5c-0.54,1.89-1.52,3.64-2.89,5.15c-1.37-1.5-2.35-3.25-2.89-5.15H14.89z M9.12,8.45 c0.54-1.87,1.52-3.61,2.88-5.1c1.36,1.49,2.34,3.22,2.88,5.1H9.12z M16.15,9.45h4.5c0.24,0.81,0.37,1.66,0.37,2.55 c0,0.87-0.13,1.71-0.36,2.5h-4.51c0.15-0.82,0.24-1.65,0.24-2.5C16.39,11.13,16.3,10.28,16.15,9.45z M20.29,8.45h-4.38 c-0.53-1.97-1.47-3.81-2.83-5.4C16.33,3.45,19.04,5.56,20.29,8.45z M10.92,3.05c-1.35,1.59-2.3,3.43-2.83,5.4H3.71 C4.95,5.55,7.67,3.44,10.92,3.05z M3.35,9.45h4.5C7.7,10.28,7.61,11.13,7.61,12c0,0.85,0.09,1.68,0.24,2.5H3.34 c-0.23-0.79-0.36-1.63-0.36-2.5C2.98,11.11,3.11,10.26,3.35,9.45z M3.69,15.5h4.39c0.52,1.99,1.48,3.85,2.84,5.45 C7.65,20.56,4.92,18.42,3.69,15.5z M13.09,20.95c1.36-1.6,2.32-3.46,2.84-5.45h4.39C19.08,18.42,16.35,20.55,13.09,20.95z"></path>
    </symbol>
    <symbol id="icon-dollar" viewBox="0 0 24 24">
        <path d="M12 3c4.96 0 9 4.04 9 9s-4.04 9-9 9-9-4.04-9-9 4.04-9 9-9m0-1C6.48 2 2 6.48 2 12s4.48 10 10 10 10-4.48 10-10S17.52 2 12 2zm4 7V7h-3V5h-2v2h-1c-1.1 0-2 .9-2 2v2c0 1.1.9 2 2 2h4v2H8v2h3v2h2v-2h1c1.1 0 2-.9 2-2v-2c0-1.1-.9-2-2-2h-4V9h6z"></path>
    </symbol>
    <symbol id="icon-feedback" viewBox="0 0 24 24">
        <path d="M13 14h-2v-2h2v2zm0-9h-2v6h2V5zm6-2H5v16.59l3.29-3.29.3-.3H19V3m1-1v15H9l-5 5V2h16z"></path>
    </symbol>
    <symbol id="icon-donate" viewBox="0 0 24 24">
        <path d="M11 17h2v-1h1c.55 0 1-.45 1-1v-3c0-.55-.45-1-1-1h-3v-1h4V8h-2V7h-2v1h-1c-.55 0-1 .45-1 1v3c0 .55.45 1 1 1h3v1H9v2h2v1zm5.5-15c-1.74 0-3.41.88-4.5 2.28C10.91 2.88 9.24 2 7.5 2 4.42 2 2 4.64 2 7.99c0 4.12 3.4 7.48 8.55 12.58L12 22l1.45-1.44C18.6 15.47 22 12.11 22 7.99 22 4.64 19.58 2 16.5 2zm-3.75 17.85-.75.74-.74-.73-.04-.04C6.27 14.92 3 11.69 3 7.99 3 5.19 4.98 3 7.5 3c1.4 0 2.79.71 3.71 1.89L12 5.9l.79-1.01C13.71 3.71 15.1 3 16.5 3 19.02 3 21 5.19 21 7.99c0 3.7-3.28 6.94-8.25 11.86z"></path>
    </symbol>
    <symbol id="icon-sunglasses" x="0" y="0" viewBox="0 0 1280 1000">
        <g transform="translate(0.000000,800.000000) scale(0.100000,-0.100000)" stroke="none">
        <path d="M2910 5554 c-201 -13 -369 -28 -460 -40 -898 -123 -1532 -455 -1858 -975 -97 -154 -186 -377 -241 -604 l-27 -110 -138 -5 c-136 -5 -138 -5 -162 -33 -23 -27 -24 -32 -24 -207 l0 -180 29 -32 c29 -32 31 -33 129 -36 l99 -4 7 -171 c22 -583 197 -1075 522 -1467 92 -111 306 -316 414 -397 236 -177 456 -289 715 -364 1023 -298 2088 181 3105 1396 637 761 917 1470 803 2037 -5 26 -2 30 48 52 123 54 263 79 439 79 197 -1 393 -48 510 -123 73 -47 71 -43 59 -165 -29 -285 59 -652 243 -1020 313 -623 983 -1389 1598 -1825 586 -415 1204 -585 1800 -495 475 71 891 287 1255 650 195 194 322 370 435 600 156 319 234 641 247 1027 l6 187 139 3 140 3 29 33 29 32 0 181 0 181 -29 29 -29 29 -171 0 -170 0 -10 38 c-5 20 -17 66 -25 102 -25 113 -94 310 -146 417 -208 437 -566 739 -1121 946 -285 107 -614 174 -1074 218 -170 17 -779 17 -950 1 -327 -32 -561 -65 -762 -108 l-113 -24 -1838 0 c-1806 0 -1840 0 -1933 20 -209 45 -491 85 -769 110 -118 11 -651 21 -750 14z m4570 -402 c-242 -166 -404 -344 -495 -542 -16 -36 -30 -67 -32 -69 -1 -2 -37 14 -80 36 -140 72 -272 107 -458 122 -216 17 -458 -19 -627 -93 l-36 -16 -41 74 c-91 166 -242 331 -400 437 -44 30 -80 57 -81 62 0 4 512 7 1138 6 1073 0 1136 -1 1112 -17z"/>
        </g>
    </symbol>
    <symbol id="icon-glasses" x="0" y="0" viewBox="0 0 1280 1000">
        <g transform="translate(0.000000,800.000000) scale(0.100000,-0.100000)" stroke="none">
        <path d="M 2910 5554 C 2709 5541 2541 5526 2450 5514 C 1552 5391 918 5059 592 4539 C 495 4385 406 4162 351 3935 L 324 3825 L 186 3820 C 50 3815 48 3815 24 3787 C 1 3760 0 3755 0 3580 L 0 3400 L 29 3368 C 58 3336 60 3335 158 3332 L 257 3328 L 264 3157 C 286 2574 461 2082 786 1690 C 878 1579 1092 1374 1200 1293 C 1436 1116 1656 1004 1915 929 C 2938 631 4003 1110 5020 2325 C 5657 3086 5937 3795 5823 4362 C 5818 4388 5821 4392 5871 4414 C 5994 4468 6134 4493 6310 4493 C 6507 4492 6703 4445 6820 4370 C 6893 4323 6891 4327 6879 4205 C 6850 3920 6938 3553 7122 3185 C 7435 2562 8105 1796 8720 1360 C 9306 945 9924 775 10520 865 C 10995 936 11411 1152 11775 1515 C 11970 1709 12097 1885 12210 2115 C 12366 2434 12444 2756 12457 3142 L 12463 3329 L 12602 3332 L 12742 3335 L 12771 3368 L 12800 3400 L 12800 3762 L 12742 3820 L 12401 3820 L 12391 3858 C 12386 3878 12374 3924 12366 3960 C 12341 4073 12272 4270 12220 4377 C 12012 4814 11654 5116 11099 5323 C 10814 5430 10485 5497 10025 5541 C 9855 5558 9246 5558 9075 5542 C 8748 5510 8514 5477 8313 5434 L 8200 5410 L 6362 5410 C 4556 5410 4522 5410 4429 5430 C 4220 5475 3938 5515 3660 5540 C 3542 5551 3009 5561 2910 5554 z M 7480 5152 C 7238 4986 7076 4808 6985 4610 C 6969 4574 6955 4543 6953 4541 C 6952 4539 6916 4555 6873 4577 C 6733 4649 6601 4684 6415 4699 C 6199 4716 5957 4680 5788 4606 L 5752 4590 L 5711 4664 C 5620 4830 5469 4995 5311 5101 C 5267 5131 5231 5158 5230 5163 C 5230 5167 5742 5170 6368 5169 C 7441 5169 7504 5168 7480 5152 z M 7822.1248 4885.8954 C 8019.7501 5054.4181 8541.1776 5129.3202 8541.1776 5129.3202 C 8714.6825 5166.4381 8916.6733 5194.924 9198.9425 5222.5467 C 9346.5512 5236.358 9872.2452 5236.358 10018.9907 5221.6835 C 10416.0666 5183.7023 10700.0622 5125.8673 10946.0767 5033.504 C 11425.1574 4854.8198 11734.1861 4594.1309 11913.7335 4216.9087 C 11958.6203 4124.5454 12018.1817 3954.4933 12039.762 3856.9507 C 12046.6676 3825.8752 12057.0261 3786.1676 12061.3422 3768.9034 L 12069.9742 3736.1015 L 12123.4932 3312.2661 L 12118.3139 3150.8461 C 12107.0922 2817.6476 12039.762 2539.6944 11905.1014 2264.3309 C 11807.5588 2065.7929 11697.9313 1913.8682 11529.6057 1746.4057 C 11215.3978 1433.061 10856.303 1246.608 10446.2789 1185.3201 C 9931.8066 1107.6314 9398.3437 1254.3768 8892.5035 1612.6084 C 8361.6302 1988.9673 7783.2804 2650.1851 7513.0961 3187.9641 C 7354.2658 3505.6248 7278.3034 3822.4224 7303.3365 4068.4368 C 7305.802 4093.5028 7315.9132 4249.6517 7367.2139 4358.4749 C 7451.0667 4536.3503 7615.9589 4710.0896 7822.1248 4885.8953 z M 4902.1609 4885.8953 C 5108.3268 4710.0896 5273.219 4536.3503 5357.0718 4358.4749 C 5408.3725 4249.6517 5418.4838 4093.5028 5420.9493 4068.4368 C 5445.9823 3822.4224 5370.02 3505.6248 5211.1896 3187.9641 C 4941.0053 2650.1851 4362.6555 1988.9673 3831.7823 1612.6084 C 3325.942 1254.3768 2792.4791 1107.6314 2278.0068 1185.3202 C 1867.9827 1246.608 1508.888 1433.061 1194.68 1746.4057 C 1026.3544 1913.8682 916.7269 2065.7929 819.1843 2264.3309 C 684.5238 2539.6944 617.1935 2817.6476 605.9718 3150.8461 L 600.7925 3312.2661 L 654.3115 3736.1015 L 662.9436 3768.9034 C 667.2596 3786.1676 677.6181 3825.8752 684.5238 3856.9507 C 706.104 3954.4933 765.6654 4124.5454 810.5522 4216.9087 C 990.0996 4594.1309 1299.1283 4854.8198 1778.209 5033.504 C 2024.2235 5125.8673 2308.2191 5183.7023 2705.2951 5221.6835 C 2852.0405 5236.358 3377.7346 5236.358 3525.3432 5222.5467 C 3807.6124 5194.924 4009.6032 5166.4381 4183.1082 5129.3202 C 4183.1082 5129.3202 4704.5356 5054.4181 4902.1609 4885.8954 z"/>
        </g>
    </symbol>
    <symbol id="icon-back" viewBox="0 0 24 24">
        <path d="M20 11H7.83l5.59-5.59L12 4l-8 8 8 8 1.41-1.41L7.83 13H20v-2z"></path>
    </symbol>
    <symbol id="icon-play" viewBox="0 0 24 24">
        <path d="M8,5.14V19.14L19,12.14L8,5.14Z"/>
    </symbol>
</svg>
