<svg xmlns="http://www.w3.org/2000/svg" style="display: none;">
    <symbol id="icon-search" viewBox="0 0 24 24">
        <path d="m20.87 20.17-5.59-5.59C16.35 13.35 17 11.75 17 10c0-3.87-3.13-7-7-7s-7 3.13-7 7 3.13 7 7 7c1.75 0 3.35-.65 4.58-1.71l5.59 5.59.7-.71zM10 16c-3.31 0-6-2.69-6-6s2.69-6 6-6 6 2.69 6 6-2.69 6-6 6z"></path>
    </symbol>
    <symbol id="icon-burger" viewBox="0 0 24 24">
        <path d="M21 6H3V5h18v1zm0 5H3v1h18v-1zm0 6H3v1h18v-1z"></path>
    </symbol>
    <symbol id="icon-home" viewBox="0 0 24 24">
        <path d="M4 21V10.08l8-6.96 8 6.96V21h-6v-6h-4v6H4z"></path>
    </symbol>
    <symbol id="icon-options" viewBox="0 0 24 24">
        <path d="M12 16.5c.83 0 1.5.67 1.5 1.5s-.67 1.5-1.5 1.5-1.5-.67-1.5-1.5.67-1.5 1.5-1.5zM10.5 12c0 .83.67 1.5 1.5 1.5s1.5-.67 1.5-1.5-.67-1.5-1.5-1.5-1.5.67-1.5 1.5zm0-6c0 .83.67 1.5 1.5 1.5s1.5-.67 1.5-1.5-.67-1.5-1.5-1.5-1.5.67-1.5 1.5z"></path>
    </symbol>
    <symbol id="icon-share" viewBox="0 0 24 24">
        <path d="M15 5.63 20.66 12 15 18.37V14h-1c-3.96 0-7.14 1-9.75 3.09 1.84-4.07 5.11-6.4 9.89-7.1l.86-.13V5.63M14 3v6C6.22 10.13 3.11 15.33 2 21c2.78-3.97 6.44-6 12-6v6l8-9-8-9z"></path>
    </symbol>
    <symbol id="icon-download" viewBox="0 0 24 24">
        <path d="M17 18v1H6v-1h11zm-.5-6.6-.7-.7-3.8 3.7V4h-1v10.4l-3.8-3.8-.7.7 5 5 5-4.9z"></path>
    </symbol>
    <symbol id="icon-flag" viewBox="0 0 24 24">
        <path d="m13.18 4 .24 1.2.16.8H19v7h-5.18l-.24-1.2-.16-.8H6V4h7.18M14 3H5v18h1v-9h6.6l.4 2h7V5h-5.6L14 3z"></path>
    </symbol>
    <symbol id="icon-clock" viewBox="0 0 24 24">
        <path d="M14.97 16.95 10 13.87V7h2v5.76l4.03 2.49-1.06 1.7zM12 3c-4.96 0-9 4.04-9 9s4.04 9 9 9 9-4.04 9-9-4.04-9-9-9m0-1c5.52 0 10 4.48 10 10s-4.48 10-10 10S2 17.52 2 12 6.48 2 12 2z"></path>
    </symbol>
    <symbol id="icon-save-to-list" viewBox="0 0 24 24">
        <path d="M22 13h-4v4h-2v-4h-4v-2h4V7h2v4h4v2zm-8-6H2v1h12V7zM2 12h8v-1H2v1zm0 4h8v-1H2v1z"></path>
    </symbol>
    <symbol id="icon-user" viewBox="0 0 24 24">
        <path d="M12 2C6.48 2 2 6.48 2 12s4.48 10 10 10 10-4.48 10-10S17.52 2 12 2zm0 1c4.96 0 9 4.04 9 9 0 1.42-.34 2.76-.93 3.96-1.53-1.72-3.98-2.89-7.38-3.03A3.996 3.996 0 0016 9c0-2.21-1.79-4-4-4S8 6.79 8 9c0 1.97 1.43 3.6 3.31 3.93-3.4.14-5.85 1.31-7.38 3.03C3.34 14.76 3 13.42 3 12c0-4.96 4.04-9 9-9zM9 9c0-1.65 1.35-3 3-3s3 1.35 3 3-1.35 3-3 3-3-1.35-3-3zm3 12c-3.16 0-5.94-1.64-7.55-4.12C6.01 14.93 8.61 13.9 12 13.9c3.39 0 5.99 1.03 7.55 2.98C17.94 19.36 15.16 21 12 21z"></path>
    </symbol>
    <symbol id="icon-cross" viewBox="0 0 24 24">
        <path d="m12.71 12 8.15 8.15-.71.71L12 12.71l-8.15 8.15-.71-.71L11.29 12 3.15 3.85l.71-.71L12 11.29l8.15-8.15.71.71L12.71 12z"></path>
    </symbol>
    <symbol id="icon-clock-reverse" viewBox="0 0 24 24">
        <path d="M14.97 16.95 10 13.87V7h2v5.76l4.03 2.49-1.06 1.7zM22 12c0 5.51-4.49 10-10 10S2 17.51 2 12h1c0 4.96 4.04 9 9 9s9-4.04 9-9-4.04-9-9-9C8.81 3 5.92 4.64 4.28 7.38c-.11.18-.22.37-.31.56L3.94 8H8v1H1.96V3h1v4.74c.04-.09.07-.17.11-.25.11-.22.23-.42.35-.63C5.22 3.86 8.51 2 12 2c5.51 0 10 4.49 10 10z"></path>
    </symbol>
    <symbol id="icon-exit" viewBox="0 0 24 24">
        <path d="M20 3v18H8v-1h11V4H8V3h12zm-8.9 12.1.7.7 4.4-4.4L11.8 7l-.7.7 3.1 3.1H3v1h11.3l-3.2 3.3z"></path>
    </symbol>
    <symbol id="icon-gear" viewBox="0 0 24 24">
        <path d="M12 9.5c1.38 0 2.5 1.12 2.5 2.5s-1.12 2.5-2.5 2.5-2.5-1.12-2.5-2.5 1.12-2.5 2.5-2.5m0-1c-1.93 0-3.5 1.57-3.5 3.5s1.57 3.5 3.5 3.5 3.5-1.57 3.5-3.5-1.57-3.5-3.5-3.5zM13.22 3l.55 2.2.13.51.5.18c.61.23 1.19.56 1.72.98l.4.32.5-.14 2.17-.62 1.22 2.11-1.63 1.59-.37.36.08.51c.05.32.08.64.08.98s-.03.66-.08.98l-.08.51.37.36 1.63 1.59-1.22 2.11-2.17-.62-.5-.14-.4.32c-.53.43-1.11.76-1.72.98l-.5.18-.13.51-.55 2.24h-2.44l-.55-2.2-.13-.51-.5-.18c-.6-.23-1.18-.56-1.72-.99l-.4-.32-.5.14-2.17.62-1.21-2.12 1.63-1.59.37-.36-.08-.51c-.05-.32-.08-.65-.08-.98s.03-.66.08-.98l.08-.51-.37-.36L3.6 8.56l1.22-2.11 2.17.62.5.14.4-.32c.53-.44 1.11-.77 1.72-.99l.5-.18.13-.51.54-2.21h2.44M14 2h-4l-.74 2.96c-.73.27-1.4.66-2 1.14l-2.92-.83-2 3.46 2.19 2.13c-.06.37-.09.75-.09 1.14s.03.77.09 1.14l-2.19 2.13 2 3.46 2.92-.83c.6.48 1.27.87 2 1.14L10 22h4l.74-2.96c.73-.27 1.4-.66 2-1.14l2.92.83 2-3.46-2.19-2.13c.06-.37.09-.75.09-1.14s-.03-.77-.09-1.14l2.19-2.13-2-3.46-2.92.83c-.6-.48-1.27-.87-2-1.14L14 2z"></path>
    </symbol>
    <symbol id="icon-question" viewBox="0 0 24 24">
        <path d="M15.36 9.96c0 1.09-.67 1.67-1.31 2.24-.53.47-1.03.9-1.16 1.6l-.04.2H11.1l.03-.28c.14-1.17.8-1.76 1.47-2.27.52-.4 1.01-.77 1.01-1.49 0-.51-.23-.97-.63-1.29-.4-.31-.92-.42-1.42-.29-.59.15-1.05.67-1.19 1.34l-.05.28H8.57l.06-.42c.2-1.4 1.15-2.53 2.42-2.87 1.05-.29 2.14-.08 2.98.57.85.64 1.33 1.62 1.33 2.68zM12 18c.55 0 1-.45 1-1s-.45-1-1-1-1 .45-1 1 .45 1 1 1zm0-15c-4.96 0-9 4.04-9 9s4.04 9 9 9 9-4.04 9-9-4.04-9-9-9m0-1c5.52 0 10 4.48 10 10s-4.48 10-10 10S2 17.52 2 12 6.48 2 12 2z"></path>
    </symbol>
    <symbol id="icon-globe" viewBox="0 0 24 24">
        <path d="M11.99,1.98C6.46,1.98,1.98,6.47,1.98,12s4.48,10.02,10.01,10.02c5.54,0,10.03-4.49,10.03-10.02S17.53,1.98,11.99,1.98z M8.86,14.5c-0.16-0.82-0.25-1.65-0.25-2.5c0-0.87,0.09-1.72,0.26-2.55h6.27c0.17,0.83,0.26,1.68,0.26,2.55 c0,0.85-0.09,1.68-0.25,2.5H8.86z M14.89,15.5c-0.54,1.89-1.52,3.64-2.89,5.15c-1.37-1.5-2.35-3.25-2.89-5.15H14.89z M9.12,8.45 c0.54-1.87,1.52-3.61,2.88-5.1c1.36,1.49,2.34,3.22,2.88,5.1H9.12z M16.15,9.45h4.5c0.24,0.81,0.37,1.66,0.37,2.55 c0,0.87-0.13,1.71-0.36,2.5h-4.51c0.15-0.82,0.24-1.65,0.24-2.5C16.39,11.13,16.3,10.28,16.15,9.45z M20.29,8.45h-4.38 c-0.53-1.97-1.47-3.81-2.83-5.4C16.33,3.45,19.04,5.56,20.29,8.45z M10.92,3.05c-1.35,1.59-2.3,3.43-2.83,5.4H3.71 C4.95,5.55,7.67,3.44,10.92,3.05z M3.35,9.45h4.5C7.7,10.28,7.61,11.13,7.61,12c0,0.85,0.09,1.68,0.24,2.5H3.34 c-0.23-0.79-0.36-1.63-0.36-2.5C2.98,11.11,3.11,10.26,3.35,9.45z M3.69,15.5h4.39c0.52,1.99,1.48,3.85,2.84,5.45 C7.65,20.56,4.92,18.42,3.69,15.5z M13.09,20.95c1.36-1.6,2.32-3.46,2.84-5.45h4.39C19.08,18.42,16.35,20.55,13.09,20.95z"></path>
    </symbol>
    <symbol id="icon-dollar" viewBox="0 0 24 24">
        <path d="M12 3c4.96 0 9 4.04 9 9s-4.04 9-9 9-9-4.04-9-9 4.04-9 9-9m0-1C6.48 2 2 6.48 2 12s4.48 10 10 10 10-4.48 10-10S17.52 2 12 2zm4 7V7h-3V5h-2v2h-1c-1.1 0-2 .9-2 2v2c0 1.1.9 2 2 2h4v2H8v2h3v2h2v-2h1c1.1 0 2-.9 2-2v-2c0-1.1-.9-2-2-2h-4V9h6z"></path>
    </symbol>
    <symbol id="icon-feedback" viewBox="0 0 24 24">
        <path d="M13 14h-2v-2h2v2zm0-9h-2v6h2V5zm6-2H5v16.59l3.29-3.29.3-.3H19V3m1-1v15H9l-5 5V2h16z"></path>
    </symbol>
    <symbol id="icon-donate" viewBox="0 0 24 24">
        <path d="M11 17h2v-1h1c.55 0 1-.45 1-1v-3c0-.55-.45-1-1-1h-3v-1h4V8h-2V7h-2v1h-1c-.55 0-1 .45-1 1v3c0 .55.45 1 1 1h3v1H9v2h2v1zm5.5-15c-1.74 0-3.41.88-4.5 2.28C10.91 2.88 9.24 2 7.5 2 4.42 2 2 4.64 2 7.99c0 4.12 3.4 7.48 8.55 12.58L12 22l1.45-1.44C18.6 15.47 22 12.11 22 7.99 22 4.64 19.58 2 16.5 2zm-3.75 17.85-.75.74-.74-.73-.04-.04C6.27 14.92 3 11.69 3 7.99 3 5.19 4.98 3 7.5 3c1.4 0 2.79.71 3.71 1.89L12 5.9l.79-1.01C13.71 3.71 15.1 3 16.5 3 19.02 3 21 5.19 21 7.99c0 3.7-3.28 6.94-8.25 11.86z"></path>
    </symbol>
    <symbol id="icon-sunglasses" x="0" y="0" viewBox="0 0 1280 1000">
        <g transform="translate(0.000000,800.000000) scale(0.100000,-0.100000)" stroke="none">
        <path d="M2910 5554 c-201 -13 -369 -28 -460 -40 -898 -123 -1532 -455 -1858 -975 -97 -154 -186 -377 -241 -604 l-27 -110 -138 -5 c-136 -5 -138 -5 -162 -33 -23 -27 -24 -32 -24 -207 l0 -180 29 -32 c29 -32 31 -33 129 -36 l99 -4 7 -171 c22 -583 197 -1075 522 -1467 92 -111 306 -316 414 -397 236 -177 456 -289 715 -364 1023 -298 2088 181 3105 1396 637 761 917 1470 803 2037 -5 26 -2 30 48 52 123 54 263 79 439 79 197 -1 393 -48 510 -123 73 -47 71 -43 59 -165 -29 -285 59 -652 243 -1020 313 -623 983 -1389 1598 -1825 586 -415 1204 -585 1800 -495 475 71 891 287 1255 650 195 194 322 370 435 600 156 319 234 641 247 1027 l6 187 139 3 140 3 29 33 29 32 0 181 0 181 -29 29 -29 29 -171 0 -170 0 -10 38 c-5 20 -17 66 -25 102 -25 113 -94 310 -146 417 -208 437 -566 739 -1121 946 -285 107 -614 174 -1074 218 -170 17 -779 17 -950 1 -327 -32 -561 -65 -762 -108 l-113 -24 -1838 0 c-1806 0 -1840 0 -1933 20 -209 45 -491 85 -769 110 -118 11 -651 21 -750 14z m4570 -402 c-242 -166 -404 -344 -495 -542 -16 -36 -30 -67 -32 -69 -1 -2 -37 14 -80 36 -140 72 -272 107 -458 122 -216 17 -458 -19 -627 -93 l-36 -16 -41 74 c-91 166 -242 331 -400 437 -44 30 -80 57 -81 62 0 4 512 7 1138 6 1073 0 1136 -1 1112 -17z"/>
        </g>
    </symbol>
    <symbol id="icon-glasses" x="0" y="0" viewBox="0 0 1280 1000">
        <g transform="translate(0.000000,800.000000) scale(0.100000,-0.100000)" stroke="none">
        <path d="M 2910 5554 C 2709 5541 2541 5526 2450 5514 C 1552 5391 918 5059 592 4539 C 495 4385 406 4162 351 3935 L 324 3825 L 186 3820 C 50 3815 48 3815 24 3787 C 1 3760 0 3755 0 3580 L 0 3400 L 29 3368 C 58 3336 60 3335 158 3332 L 257 3328 L 264 3157 C 286 2574 461 2082 786 1690 C 878 1579 1092 1374 1200 1293 C 1436 1116 1656 1004 1915 929 C 2938 631 4003 1110 5020 2325 C 5657 3086 5937 3795 5823 4362 C 5818 4388 5821 4392 5871 4414 C 5994 4468 6134 4493 6310 4493 C 6507 4492 6703 4445 6820 4370 C 6893 4323 6891 4327 6879 4205 C 6850 3920 6938 3553 7122 3185 C 7435 2562 8105 1796 8720 1360 C 9306 945 9924 775 10520 865 C 10995 936 11411 1152 11775 1515 C 11970 1709 12097 1885 12210 2115 C 12366 2434 12444 2756 12457 3142 L 12463 3329 L 12602 3332 L 12742 3335 L 12771 3368 L 12800 3400 L 12800 3762 L 12742 3820 L 12401 3820 L 12391 3858 C 12386 3878 12374 3924 12366 3960 C 12341 4073 12272 4270 12220 4377 C 12012 4814 11654 5116 11099 5323 C 10814 5430 10485 5497 10025 5541 C 9855 5558 9246 5558 9075 5542 C 8748 5510 8514 5477 8313 5434 L 8200 5410 L 6362 5410 C 4556 5410 4522 5410 4429 5430 C 4220 5475 3938 5515 3660 5540 C 3542 5551 3009 5561 2910 5554 z M 7480 5152 C 7238 4986 7076 4808 6985 4610 C 6969 4574 6955 4543 6953 4541 C 6952 4539 6916 4555 6873 4577 C 6733 4649 6601 4684 6415 4699 C 6199 4716 5957 4680 5788 4606 L 5752 4590 L 5711 4664 C 5620 4830 5469 4995 5311 5101 C 5267 5131 5231 5158 5230 5163 C 5230 5167 5742 5170 6368 5169 C 7441 5169 7504 5168 7480 5152 z M 7822.1248 4885.8954 C 8019.7501 5054.4181 8541.1776 5129.3202 8541.1776 5129.3202 C 8714.6825 5166.4381 8916.6733 5194.924 9198.9425 5222.5467 C 9346.5512 5236.358 9872.2452 5236.358 10018.9907 5221.6835 C 10416.0666 5183.7023 10700.0622 5125.8673 10946.0767 5033.504 C 11425.1574 4854.8198 11734.1861 4594.1309 11913.7335 4216.9087 C 11958.6203 4124.5454 12018.1817 3954.4933 12039.762 3856.9507 C 12046.6676 3825.8752 12057.0261 3786.1676 12061.3422 3768.9034 L 12069.9742 3736.1015 L 12123.4932 3312.2661 L 12118.3139 3150.8461 C 12107.0922 2817.6476 12039.762 2539.6944 11905.1014 2264.3309 C 11807.5588 2065.7929 11697.9313 1913.8682 11529.6057 1746.4057 C 11215.3978 1433.061 10856.303 1246.608 10446.2789 1185.3201 C 9931.8066 1107.6314 9398.3437 1254.3768 8892.5035 1612.6084 C 8361.6302 1988.9673 7783.2804 2650.1851 7513.0961 3187.9641 C 7354.2658 3505.6248 7278.3034 3822.4224 7303.3365 4068.4368 C 7305.802 4093.5028 7315.9132 4249.6517 7367.2139 4358.4749 C 7451.0667 4536.3503 7615.9589 4710.0896 7822.1248 4885.8953 z M 4902.1609 4885.8953 C 5108.3268 4710.0896 5273.219 4536.3503 5357.0718 4358.4749 C 5408.3725 4249.6517 5418.4838 4093.5028 5420.9493 4068.4368 C 5445.9823 3822.4224 5370.02 3505.6248 5211.1896 3187.9641 C 4941.0053 2650.1851 4362.6555 1988.9673 3831.7823 1612.6084 C 3325.942 1254.3768 2792.4791 1107.6314 2278.0068 1185.3202 C 1867.9827 1246.608 1508.888 1433.061 1194.68 1746.4057 C 1026.3544 1913.8682 916.7269 2065.7929 819.1843 2264.3309 C 684.5238 2539.6944 617.1935 2817.6476 605.9718 3150.8461 L 600.7925 3312.2661 L 654.3115 3736.1015 L 662.9436 3768.9034 C 667.2596 3786.1676 677.6181 3825.8752 684.5238 3856.9507 C 706.104 3954.4933 765.6654 4124.5454 810.5522 4216.9087 C 990.0996 4594.1309 1299.1283 4854.8198 1778.209 5033.504 C 2024.2235 5125.8673 2308.2191 5183.7023 2705.2951 5221.6835 C 2852.0405 5236.358 3377.7346 5236.358 3525.3432 5222.5467 C 3807.6124 5194.924 4009.6032 5166.4381 4183.1082 5129.3202 C 4183.1082 5129.3202 4704.5356 5054.4181 4902.1609 4885.8954 z"/>
        </g>
    </symbol>
    <symbol id="icon-back" viewBox="0 0 24 24">
        <path d="M20 11H7.83l5.59-5.59L12 4l-8 8 8 8 1.41-1.41L7.83 13H20v-2z"></path>
    </symbol>
    <symbol id="icon-play" viewBox="0 0 24 24">
        <path d="M8,5.14V19.14L19,12.14L8,5.14Z"/>
    </symbol>
    <symbol id="icon-loop" viewBox="0 0 24 24">
        <path d="M7 7H17V10L21 6L17 2V5H5V11H7V7ZM17 17H7V14L3 18L7 22V19H19V13H17V17Z"></path>
    </symbol>
    <symbol id="icon-loop-active" viewBox="0 0 24 24">
        <path d="M 10 8.57 V 15.57 L 15.5 12.07 L 10 8.57 Z M7 7H17V10L21 6L17 2V5H5V11H7V7ZM17 17H7V14L3 18L7 22V19H19V13H17V17Z"></path>
    </symbol>
    <symbol id="share-whatsapp" viewBox="0 0 60 60">
        <g fill="none" fill-rule="evenodd">
            <circle cx="30" cy="30" r="30" fill="#25D366"></circle>
            <path d="M39.7746 19.3513C37.0512 16.5467 33.42 15 29.5578 15C21.6022 15 15.1155 21.6629 15.1155 29.8725C15.1155 32.4901 15.7758 35.0567 17.0467 37.3003L15 45L22.6585 42.9263C24.7712 44.1161 27.148 44.728 29.5578 44.728C37.5134 44.728 44 38.0652 44 29.8555C44 25.8952 42.498 22.1558 39.7746 19.3513ZM29.5578 42.2295C27.3956 42.2295 25.2829 41.6346 23.4508 40.5127L23.0051 40.2408L18.4661 41.4646L19.671 36.9093L19.3904 36.4334C18.1855 34.4618 17.5583 32.1841 17.5583 29.8555C17.5583 23.0397 22.9556 17.4986 29.5743 17.4986C32.7763 17.4986 35.7968 18.7904 38.0581 21.119C40.3193 23.4476 41.5737 26.5581 41.5737 29.8555C41.5572 36.6884 36.1764 42.2295 29.5578 42.2295ZM36.1434 32.966C35.7803 32.779 34.0142 31.8782 33.6841 31.7592C33.354 31.6402 33.1064 31.5722 32.8754 31.9462C32.6278 32.3201 31.9511 33.153 31.7365 33.4079C31.5219 33.6629 31.3238 33.6799 30.9607 33.4929C30.5976 33.306 29.4422 32.915 28.0558 31.6572C26.9829 30.6714 26.2567 29.4476 26.0421 29.0907C25.8275 28.7167 26.0256 28.5127 26.2072 28.3258C26.3722 28.1558 26.5703 27.8839 26.7518 27.6799C26.9334 27.4589 26.9994 27.3059 27.115 27.068C27.2305 26.813 27.181 26.6091 27.082 26.4221C26.9994 26.2351 26.2732 24.3994 25.9761 23.6686C25.679 22.9377 25.3819 23.0397 25.1673 23.0227C24.9528 23.0057 24.7217 23.0057 24.4741 23.0057C24.2265 23.0057 23.8469 23.0907 23.5168 23.4646C23.1867 23.8385 22.2459 24.7394 22.2459 26.5581C22.2459 28.3938 23.5333 30.1445 23.7149 30.3994C23.8964 30.6544 26.2567 34.3938 29.8714 36.0085C30.7297 36.3994 31.4064 36.6204 31.9345 36.7904C32.7928 37.0793 33.5851 37.0283 34.2123 36.9433C34.9055 36.8414 36.3415 36.0425 36.6551 35.1756C36.9522 34.3088 36.9522 33.5609 36.8697 33.4079C36.7541 33.255 36.5065 33.153 36.1434 32.966Z" fill="white"></path>
        </g>
    </symbol>
    <symbol id="share-facebook" viewBox="0 0 60 60">
        <g fill="none" fill-rule="evenodd">
            <path d="M28.4863253 59.9692983c-6.6364044-.569063-11.5630204-2.3269561-16.3219736-5.8239327C4.44376366 48.4721168 3e-7 39.6467924 3e-7 29.9869344c0-14.8753747 10.506778-27.18854591 25.2744118-29.61975392 6.0281072-.9924119 12.7038532.04926445 18.2879399 2.85362966C57.1386273 10.0389054 63.3436516 25.7618627 58.2050229 40.3239688 54.677067 50.3216743 45.4153135 57.9417536 34.81395 59.5689067c-2.0856252.3201125-5.0651487.5086456-6.3276247.4003916z" fill="#3B5998" fill-rule="nonzero"></path>
            <path d="M25.7305108 45h5.4583577V30.0073333h4.0947673l.8098295-4.6846666h-4.9045968V21.928c0-1.0943333.7076019-2.2433333 1.7188899-2.2433333h2.7874519V15h-3.4161354v.021c-5.3451414.194-6.4433395 3.2896667-6.5385744 6.5413333h-.0099897v3.7603334H23v4.6846666h2.7305108V45z" fill="#FFF"></path>
        </g>
    </symbol>
    <symbol id="share-twitter" viewBox="0 0 60 60">
        <g fill="none" fill-rule="evenodd">
            <path d="M28.486325 59.969298c-6.636404-.569063-11.56302-2.326956-16.321973-5.823932C4.443764 48.472116 0 39.646792 0 29.986934 0 15.11156 10.506778 2.798388 25.274412.36718c6.028107-.992411 12.703853.049265 18.28794 2.85363 13.576275 6.818095 19.7813 22.541053 14.64267 37.103159-3.527955 9.997705-12.789708 17.617785-23.391072 19.244938-2.085625.320112-5.065149.508645-6.327625.400391z" fill="#1DA1F2" fill-rule="nonzero"></path>
            <path d="M45.089067 17.577067c-.929778.595555-3.064534 1.460977-4.117334 1.460977v.001778C39.7696 17.784 38.077156 17 36.200178 17c-3.645511 0-6.6016 2.956089-6.6016 6.600178 0 .50631.058666 1.000178.16711 1.473778h-.001066c-4.945066-.129778-10.353422-2.608356-13.609244-6.85049-2.001778 3.46489-.269511 7.3184 2.002133 8.72249-.7776.058666-2.209067-.0896-2.882844-.747023-.045156 2.299734 1.060622 5.346845 5.092622 6.452267-.776533.417778-2.151111.297956-2.7488.209067.209778 1.941333 2.928355 4.479289 5.901155 4.479289C22.46009 38.565156 18.4736 40.788089 14 40.080889 17.038222 41.929422 20.5792 43 24.327111 43c10.650667 0 18.921956-8.631822 18.4768-19.280356-.001778-.011733-.001778-.023466-.002844-.036266.001066-.027378.002844-.054756.002844-.0832 0-.033067-.002844-.064356-.003911-.096356.9696-.66311 2.270578-1.836089 3.2-3.37991-.539022.296888-2.156089.891377-3.6608 1.038932.965689-.521244 2.396444-2.228266 2.749867-3.585777" fill="#FFF"></path>
        </g>
    </symbol>
    <symbol id="share-reddit" viewBox="0 0 60 60">
        <g fill-rule="nonzero" fill="none">
            <path d="M28.4863253 59.9692983c-6.6364044-.569063-11.5630204-2.3269561-16.3219736-5.8239327C4.44376366 48.4721168 3e-7 39.6467924 3e-7 29.9869344c0-14.8753747 10.506778-27.18854591 25.2744118-29.61975392 6.0281072-.9924119 12.7038532.04926445 18.2879399 2.85362966C57.1386273 10.0389054 63.3436516 25.7618627 58.2050229 40.3239688 54.677067 50.3216743 45.4153135 57.9417536 34.81395 59.5689067c-2.0856252.3201125-5.0651487.5086456-6.3276247.4003916z" fill="#FF4500"></path>
            <path d="M34.1335847 43.9991814c1.6336774-.3831682 2.81654-.7939438 3.9781753-1.3815065 3.6153903-1.8286959 5.8788354-4.8645264 5.8788354-7.8849481 0-.9131088.0196207-.9556355.780668-1.6923265.6040409-.5847092.8404012-.962515 1.044679-1.6698428.2433185-.8425206.2441028-.9826228.0100139-1.7878614-.6566532-2.2588075-3.0054252-3.2764371-5.1075029-2.212882l-.8124519.4110627-.837264-.5151716c-1.6101652-.9907471-4.473974-1.96108051-6.3205111-2.14155924-.5059537-.04945042-1.143803-.1235464-1.4174535-.16465815l-.4975382-.07474783.2136595-1.06953332c.1175125-.5882423.3623778-1.7491883.5441475-2.57987956.181767-.83069153.4095191-1.95749071.5061138-2.50399817.1396137-.78991765.2348596-.99365031.4645331-.99365031.1589005 0 1.2955101.21462853 2.5257988.4769522 1.2302915.26232367 2.2622022.47695193 2.293134.47695193.0309345 0 .1003234.23497925.154203.52217616.1363137.72661143.4902897 1.17780487 1.2134714 1.54674469 1.7356128.8854428 3.6891485-.29431302 3.6891485-2.22790474 0-2.3956262-2.9538443-3.44186625-4.4550019-1.57794377-.2901205.36022881-.4356746.42625561-.7154284.32453216-.1931649-.07023833-1.5202546-.3669593-2.9490951-.65938053-1.8923676-.38728585-2.6686067-.48706487-2.8582979-.36740978-.2896185.1826864-.2522224.047706-1.0501419 3.79055007-.9490696 4.45187338-1.0064011 4.70400786-1.0882029 4.78580828-.0432388.04324046-.729551.14596475-1.5251367.22827402-2.413687.24971784-5.06621906 1.10194849-6.8544721 2.20227189l-.8268564.5087695-.81204644-.4046587c-2.11972653-1.0563058-4.47243958-.0382468-5.1287215 2.2192841-.23408885.8052386-.23330375.9453408.0100166 1.7878614.20427624.7073278.44063816 1.0851336 1.04467744 1.6698428.76105187.736691.78066878.7792177.78066878 1.6923265 0 4.172347 4.28816886 8.1540991 10.01599352 9.3002929 1.8975637.3797217 2.0263168.3894072 4.4515526.3349143 1.5849893-.0356103 2.7274992-.1508298 3.6566327-.3687526zm-6.6864685-3.0300366c-1.3154638-.2961613-2.8032079-.9569232-3.2391341-1.4386156-.34760429-.384099-.198986-.9659493.246724-.9659493.1736296 0 .5801788.1805458.9034441.4012095 2.1828306 1.4900284 7.1085991 1.484628 9.2987021-.0101767.7054363-.4814861 1.2827246-.468194 1.3538857.0311679.0334854.234998-.1164569.4687666-.4771278.7438635-1.7511846 1.3356924-5.2646974 1.8738181-8.086494 1.2385197v-.000019zm-4.01196195-5.9075609c-.81902983-.4443886-1.22403999-1.1532958-1.22477787-2.143771-.000787-1.135302.52653614-1.8699603 1.59778946-2.2257735.76240766-.253232.85344696-.2532238 1.51689516.0001492 1.785415.6818561 2.1507834 2.909296.6724678 4.0996229-.7705198.6204159-1.7299516.7214286-2.56237455.2697724zm11.09588945.0732995c-.7590038-.3947507-1.1832989-.8746601-1.3628596-1.5414995-.3321829-1.2336253.2931784-2.4377233 1.5067529-2.9011953.6634485-.253373.754488-.2533812 1.5168976-.0001492 1.0712525.3558132 1.5986343 1.0904715 1.5977903 2.2257735-.0008141 1.0085002-.4138259 1.7116813-1.2587076 2.1427072-.7599699.3877084-1.3548626.4098285-1.9998736.0743633z" fill="#FDFDFD"></path>
        </g>
    </symbol>
    <symbol id="share-email" viewBox="0 0 60 60">
        <g fill-rule="nonzero" fill="none">
            <path d="M28.4863253 59.9692983c-6.6364044-.569063-11.5630204-2.3269561-16.3219736-5.8239327C4.44376366 48.4721168 3e-7 39.6467924 3e-7 29.9869344c0-14.8753747 10.506778-27.18854591 25.2744118-29.61975392 6.0281072-.9924119 12.7038532.04926445 18.2879399 2.85362966C57.1386273 10.0389054 63.3436516 25.7618627 58.2050229 40.3239688 54.677067 50.3216743 45.4153135 57.9417536 34.81395 59.5689067c-2.0856252.3201125-5.0651487.5086456-6.3276247.4003916z" fill="#888"></path>
            <path d="M40.531502 19.160814h-22c-1.74 0-2.986 1.2375-3 3v16c0 1.7625 1.26 3 3 3h22c1.74 0 3-1.2375 3-3v-16c0-1.7625-1.26-3-3-3zm0 6l-11 7-11-7v-3l11 7 11-7v3z" fill="#FFF"></path>
        </g>
    </symbol>
</svg>


