<svg xmlns="http://www.w3.org/2000/svg" style="display: none;">
    <symbol id="icon-search" viewBox="0 0 24 24">
        <path d="m20.87 20.17-5.59-5.59C16.35 13.35 17 11.75 17 10c0-3.87-3.13-7-7-7s-7 3.13-7 7 3.13 7 7 7c1.75 0 3.35-.65 4.58-1.71l5.59 5.59.7-.71zM10 16c-3.31 0-6-2.69-6-6s2.69-6 6-6 6 2.69 6 6-2.69 6-6 6z"></path>
    </symbol>
    <symbol id="icon-burger" viewBox="0 0 24 24">
        <path d="M21 6H3V5h18v1zm0 5H3v1h18v-1zm0 6H3v1h18v-1z"></path>
    </symbol>
    <symbol id="icon-home" viewBox="0 0 24 24">
        <path d="M4 21V10.08l8-6.96 8 6.96V21h-6v-6h-4v6H4z"></path>
    </symbol>
    <symbol id="icon-options" viewBox="0 0 24 24">
        <path d="M12 16.5c.83 0 1.5.67 1.5 1.5s-.67 1.5-1.5 1.5-1.5-.67-1.5-1.5.67-1.5 1.5-1.5zM10.5 12c0 .83.67 1.5 1.5 1.5s1.5-.67 1.5-1.5-.67-1.5-1.5-1.5-1.5.67-1.5 1.5zm0-6c0 .83.67 1.5 1.5 1.5s1.5-.67 1.5-1.5-.67-1.5-1.5-1.5-1.5.67-1.5 1.5z"></path>
    </symbol>
    <symbol id="icon-share" viewBox="0 0 24 24">
        <path d="M15 5.63 20.66 12 15 18.37V14h-1c-3.96 0-7.14 1-9.75 3.09 1.84-4.07 5.11-6.4 9.89-7.1l.86-.13V5.63M14 3v6C6.22 10.13 3.11 15.33 2 21c2.78-3.97 6.44-6 12-6v6l8-9-8-9z"></path>
    </symbol>
    <symbol id="icon-download" viewBox="0 0 24 24">
        <path d="M17 18v1H6v-1h11zm-.5-6.6-.7-.7-3.8 3.7V4h-1v10.4l-3.8-3.8-.7.7 5 5 5-4.9z"></path>
    </symbol>
    <symbol id="icon-flag" viewBox="0 0 24 24">
        <path d="m13.18 4 .24 1.2.16.8H19v7h-5.18l-.24-1.2-.16-.8H6V4h7.18M14 3H5v18h1v-9h6.6l.4 2h7V5h-5.6L14 3z"></path>
    </symbol>
    <symbol id="icon-clock" viewBox="0 0 24 24">
        <path d="M14.97 16.95 10 13.87V7h2v5.76l4.03 2.49-1.06 1.7zM12 3c-4.96 0-9 4.04-9 9s4.04 9 9 9 9-4.04 9-9-4.04-9-9-9m0-1c5.52 0 10 4.48 10 10s-4.48 10-10 10S2 17.52 2 12 6.48 2 12 2z"></path>
    </symbol>
    <symbol id="icon-save-to-list" viewBox="0 0 24 24">
        <path d="M22 13h-4v4h-2v-4h-4v-2h4V7h2v4h4v2zm-8-6H2v1h12V7zM2 12h8v-1H2v1zm0 4h8v-1H2v1z"></path>
    </symbol>
    <symbol id="icon-user" viewBox="0 0 24 24">
        <path d="M12 2C6.48 2 2 6.48 2 12s4.48 10 10 10 10-4.48 10-10S17.52 2 12 2zm0 1c4.96 0 9 4.04 9 9 0 1.42-.34 2.76-.93 3.96-1.53-1.72-3.98-2.89-7.38-3.03A3.996 3.996 0 0016 9c0-2.21-1.79-4-4-4S8 6.79 8 9c0 1.97 1.43 3.6 3.31 3.93-3.4.14-5.85 1.31-7.38 3.03C3.34 14.76 3 13.42 3 12c0-4.96 4.04-9 9-9zM9 9c0-1.65 1.35-3 3-3s3 1.35 3 3-1.35 3-3 3-3-1.35-3-3zm3 12c-3.16 0-5.94-1.64-7.55-4.12C6.01 14.93 8.61 13.9 12 13.9c3.39 0 5.99 1.03 7.55 2.98C17.94 19.36 15.16 21 12 21z"></path>
    </symbol>
    <symbol id="icon-cross" viewBox="0 0 24 24">
        <path d="m12.71 12 8.15 8.15-.71.71L12 12.71l-8.15 8.15-.71-.71L11.29 12 3.15 3.85l.71-.71L12 11.29l8.15-8.15.71.71L12.71 12z"></path>
    </symbol>
    <symbol id="icon-clock-reverse" viewBox="0 0 24 24">
        <path d="M14.97 16.95 10 13.87V7h2v5.76l4.03 2.49-1.06 1.7zM22 12c0 5.51-4.49 10-10 10S2 17.51 2 12h1c0 4.96 4.04 9 9 9s9-4.04 9-9-4.04-9-9-9C8.81 3 5.92 4.64 4.28 7.38c-.11.18-.22.37-.31.56L3.94 8H8v1H1.96V3h1v4.74c.04-.09.07-.17.11-.25.11-.22.23-.42.35-.63C5.22 3.86 8.51 2 12 2c5.51 0 10 4.49 10 10z"></path>
    </symbol>
    <symbol id="icon-exit" viewBox="0 0 24 24">
        <path d="M20 3v18H8v-1h11V4H8V3h12zm-8.9 12.1.7.7 4.4-4.4L11.8 7l-.7.7 3.1 3.1H3v1h11.3l-3.2 3.3z"></path>
    </symbol>
    <symbol id="icon-gear" viewBox="0 0 24 24">
        <path d="M12 9.5c1.38 0 2.5 1.12 2.5 2.5s-1.12 2.5-2.5 2.5-2.5-1.12-2.5-2.5 1.12-2.5 2.5-2.5m0-1c-1.93 0-3.5 1.57-3.5 3.5s1.57 3.5 3.5 3.5 3.5-1.57 3.5-3.5-1.57-3.5-3.5-3.5zM13.22 3l.55 2.2.13.51.5.18c.61.23 1.19.56 1.72.98l.4.32.5-.14 2.17-.62 1.22 2.11-1.63 1.59-.37.36.08.51c.05.32.08.64.08.98s-.03.66-.08.98l-.08.51.37.36 1.63 1.59-1.22 2.11-2.17-.62-.5-.14-.4.32c-.53.43-1.11.76-1.72.98l-.5.18-.13.51-.55 2.24h-2.44l-.55-2.2-.13-.51-.5-.18c-.6-.23-1.18-.56-1.72-.99l-.4-.32-.5.14-2.17.62-1.21-2.12 1.63-1.59.37-.36-.08-.51c-.05-.32-.08-.65-.08-.98s.03-.66.08-.98l.08-.51-.37-.36L3.6 8.56l1.22-2.11 2.17.62.5.14.4-.32c.53-.44 1.11-.77 1.72-.99l.5-.18.13-.51.54-2.21h2.44M14 2h-4l-.74 2.96c-.73.27-1.4.66-2 1.14l-2.92-.83-2 3.46 2.19 2.13c-.06.37-.09.75-.09 1.14s.03.77.09 1.14l-2.19 2.13 2 3.46 2.92-.83c.6.48 1.27.87 2 1.14L10 22h4l.74-2.96c.73-.27 1.4-.66 2-1.14l2.92.83 2-3.46-2.19-2.13c.06-.37.09-.75.09-1.14s-.03-.77-.09-1.14l2.19-2.13-2-3.46-2.92.83c-.6-.48-1.27-.87-2-1.14L14 2z"></path>
    </symbol>
    <symbol id="icon-question" viewBox="0 0 24 24">
        <path d="M15.36 9.96c0 1.09-.67 1.67-1.31 2.24-.53.47-1.03.9-1.16 1.6l-.04.2H11.1l.03-.28c.14-1.17.8-1.76 1.47-2.27.52-.4 1.01-.77 1.01-1.49 0-.51-.23-.97-.63-1.29-.4-.31-.92-.42-1.42-.29-.59.15-1.05.67-1.19 1.34l-.05.28H8.57l.06-.42c.2-1.4 1.15-2.53 2.42-2.87 1.05-.29 2.14-.08 2.98.57.85.64 1.33 1.62 1.33 2.68zM12 18c.55 0 1-.45 1-1s-.45-1-1-1-1 .45-1 1 .45 1 1 1zm0-15c-4.96 0-9 4.04-9 9s4.04 9 9 9 9-4.04 9-9-4.04-9-9-9m0-1c5.52 0 10 4.48 10 10s-4.48 10-10 10S2 17.52 2 12 6.48 2 12 2z"></path>
    </symbol>
    <symbol id="icon-globe" viewBox="0 0 24 24">
        <path d="M11.99,1.98C6.46,1.98,1.98,6.47,1.98,12s4.48,10.02,10.01,10.02c5.54,0,10.03-4.49,10.03-10.02S17.53,1.98,11.99,1.98z M8.86,14.5c-0.16-0.82-0.25-1.65-0.25-2.5c0-0.87,0.09-1.72,0.26-2.55h6.27c0.17,0.83,0.26,1.68,0.26,2.55 c0,0.85-0.09,1.68-0.25,2.5H8.86z M14.89,15.5c-0.54,1.89-1.52,3.64-2.89,5.15c-1.37-1.5-2.35-3.25-2.89-5.15H14.89z M9.12,8.45 c0.54-1.87,1.52-3.61,2.88-5.1c1.36,1.49,2.34,3.22,2.88,5.1H9.12z M16.15,9.45h4.5c0.24,0.81,0.37,1.66,0.37,2.55 c0,0.87-0.13,1.71-0.36,2.5h-4.51c0.15-0.82,0.24-1.65,0.24-2.5C16.39,11.13,16.3,10.28,16.15,9.45z M20.29,8.45h-4.38 c-0.53-1.97-1.47-3.81-2.83-5.4C16.33,3.45,19.04,5.56,20.29,8.45z M10.92,3.05c-1.35,1.59-2.3,3.43-2.83,5.4H3.71 C4.95,5.55,7.67,3.44,10.92,3.05z M3.35,9.45h4.5C7.7,10.28,7.61,11.13,7.61,12c0,0.85,0.09,1.68,0.24,2.5H3.34 c-0.23-0.79-0.36-1.63-0.36-2.5C2.98,11.11,3.11,10.26,3.35,9.45z M3.69,15.5h4.39c0.52,1.99,1.48,3.85,2.84,5.45 C7.65,20.56,4.92,18.42,3.69,15.5z M13.09,20.95c1.36-1.6,2.32-3.46,2.84-5.45h4.39C19.08,18.42,16.35,20.55,13.09,20.95z"></path>
    </symbol>
    <symbol id="icon-dollar" viewBox="0 0 24 24">
        <path d="M12 3c4.96 0 9 4.04 9 9s-4.04 9-9 9-9-4.04-9-9 4.04-9 9-9m0-1C6.48 2 2 6.48 2 12s4.48 10 10 10 10-4.48 10-10S17.52 2 12 2zm4 7V7h-3V5h-2v2h-1c-1.1 0-2 .9-2 2v2c0 1.1.9 2 2 2h4v2H8v2h3v2h2v-2h1c1.1 0 2-.9 2-2v-2c0-1.1-.9-2-2-2h-4V9h6z"></path>
    </symbol>
    <symbol id="icon-feedback" viewBox="0 0 24 24">
        <path d="M13 14h-2v-2h2v2zm0-9h-2v6h2V5zm6-2H5v16.59l3.29-3.29.3-.3H19V3m1-1v15H9l-5 5V2h16z"></path>
    </symbol>
    <symbol id="icon-donate" viewBox="0 0 24 24">
        <path d="M11 17h2v-1h1c.55 0 1-.45 1-1v-3c0-.55-.45-1-1-1h-3v-1h4V8h-2V7h-2v1h-1c-.55 0-1 .45-1 1v3c0 .55.45 1 1 1h3v1H9v2h2v1zm5.5-15c-1.74 0-3.41.88-4.5 2.28C10.91 2.88 9.24 2 7.5 2 4.42 2 2 4.64 2 7.99c0 4.12 3.4 7.48 8.55 12.58L12 22l1.45-1.44C18.6 15.47 22 12.11 22 7.99 22 4.64 19.58 2 16.5 2zm-3.75 17.85-.75.74-.74-.73-.04-.04C6.27 14.92 3 11.69 3 7.99 3 5.19 4.98 3 7.5 3c1.4 0 2.79.71 3.71 1.89L12 5.9l.79-1.01C13.71 3.71 15.1 3 16.5 3 19.02 3 21 5.19 21 7.99c0 3.7-3.28 6.94-8.25 11.86z"></path>
    </symbol>
</svg>
